<?xml version="1.0" standalone="no"?>
<!DOCTYPE svg PUBLIC "-//W3C//DTD SVG 20010904//EN"
 "http://www.w3.org/TR/2001/REC-SVG-20010904/DTD/svg10.dtd">
<svg version="1.0" xmlns="http://www.w3.org/2000/svg"
 width="16.000000pt" height="16.000000pt" viewBox="0 0 16.000000 16.000000"
 preserveAspectRatio="xMidYMid meet">
<metadata>
Created by potrace 1.11, written by Peter Selinger 2001-2013
</metadata>
<g transform="translate(0.000000,16.000000) scale(0.004469,-0.004469)"
fill="#000000" stroke="none">
<path d="M1495 3315 c-364 -64 -673 -223 -926 -474 -124 -125 -172 -185 -287
-366 -26 -41 -110 -223 -135 -290 -32 -91 -74 -263 -82 -345 -4 -36 -9 -74
-11 -85 -6 -30 -6 -275 0 -315 3 -19 8 -55 11 -80 3 -25 7 -56 10 -70 3 -14 8
-40 11 -58 16 -98 102 -334 160 -440 84 -155 215 -329 332 -445 l39 -38 1167
-1 1167 0 31 28 c256 240 440 568 508 904 31 155 32 168 35 330 6 404 -106
752 -346 1075 -89 120 -240 273 -329 335 -19 13 -37 27 -40 31 -11 15 -152 99
-245 146 -109 55 -233 102 -353 132 -74 19 -97 23 -222 41 -115 16 -358 9
-495 -15z"/>
</g>
</svg>
