<?xml version="1.0" encoding="utf-8"?>
<!-- Generator: Adobe Illustrator 20.1.0, SVG Export Plug-In . SVG Version: 6.00 Build 0)  -->
<svg version="1.1" xmlns="http://www.w3.org/2000/svg" xmlns:xlink="http://www.w3.org/1999/xlink" x="0px" y="0px"
	 viewBox="0 0 248.1 149.5" style="enable-background:new 0 0 248.1 149.5;" xml:space="preserve">
<style type="text/css">
	.st0{fill:#C59A6A;}
</style>
<g>
	<g>
		<path d="M124.3,0c-32,0-58,26-58,58c0,17.1,7.4,32.5,19.2,43.1h28.1v-52H90.8c-1.2-2.8-1.9-6.5-1.9-10.7c0-4.1,0.7-7.8,1.9-10.7
			h66.9c1.2,2.8,1.9,6.5,1.9,10.7c0,4.1-0.7,7.8-1.9,10.7h-22.8v52h28.1c11.8-10.6,19.2-26,19.2-43.1C182.2,26,156.3,0,124.3,0z"/>
		<g>
			<g>
				<path d="M20.9,126.3h-6.7V149H6.7v-22.8H0v-6.1h21.8L20.9,126.3z"/>
				<path d="M34.8,149.5c-8.4,0-13-5.6-13-14.2c0-10.3,5.6-15.7,13.3-15.7c9.8,0,12.7,7.5,12.7,13.8
					C47.7,141.8,45.1,149.5,34.8,149.5z M34.9,125.4c-3.4,0-4.8,3.5-4.8,9c0,7.4,1.8,9.2,4.8,9.2c3.1,0,4.5-1.9,4.5-9.3
					C39.5,127.2,38,125.4,34.9,125.4z"/>
				<path d="M69.9,126.3h-6.7V149h-7.5v-22.8H49v-6.1h21.8L69.9,126.3z"/>
				<path d="M85.9,149l-1.5-5.6h-6.8L76,149h-7.8l9.3-28.9h7.7L94,149H85.9z M81.7,132.5c-0.3-1.2-0.5-2.8-0.5-3.9
					c-0.1,1.1-0.4,2.6-0.8,4.4l-1.2,4.7h3.7L81.7,132.5z"/>
				<path d="M112.3,149H96.4v-28.9h7.5v22.7h9.8L112.3,149z"/>
			</g>
			<g>
				<path class="st0" d="M137.3,149.5c-3.6,0-6.6-1.2-8.7-3.6c-2.4-2.6-3.5-6.1-3.5-11c0-5.4,1.5-9.3,4.4-11.9
					c2-1.8,4.5-2.7,7.4-2.7c3,0,5.6,1,7.8,2.8l-1.5,2.1c-2.3-1.6-4-2.2-6.2-2.2c-3.3,0-5.9,1.5-7.1,4.8c-0.7,2.1-1.1,4.5-1.1,7.2
					c0,3.7,0.7,6.8,2,8.6c1.3,1.9,4.2,3,6.9,3c1.8,0,3.3-0.4,4.5-1.1v-8.7h-5.7l-0.7-2.8h9.6v13.3
					C143.3,148.6,140.2,149.5,137.3,149.5z"/>
				<path class="st0" d="M166.6,149c-0.8-1.9-3.5-6.2-7.3-11c-1.1-1.4-1.7-1.8-3.1-1.8V149h-3.4v-28.4h6.6c3.9,0,5.8,0.7,7.2,1.8
					c1.3,1,2.8,2.9,2.8,6c0,4.7-3,7.8-7.5,7.8h-0.4c1.3,1.1,2.3,2.4,2.9,3.2c1.2,1.6,6.5,9.7,6.5,9.7H166.6z M163.1,124
					c-0.9-0.4-2-0.6-3.6-0.6h-3.3V134h3c2.5,0,4.1-0.5,5.1-1.5c1-0.9,1.5-2.4,1.5-4.3C165.9,126.5,164.7,124.7,163.1,124z"/>
				<path class="st0" d="M193.3,146.8c-2.1,1.9-4.3,2.7-7.2,2.7c-3.5,0-6.2-1.4-8.1-3.6c-2.2-2.6-3.4-6.4-3.4-11.3
					c0-9,4.3-14.6,11.3-14.6c4.9,0,7.6,2.6,9,4.6c1.8,2.7,2.6,6,2.6,10.5C197.4,140.7,196.2,144.2,193.3,146.8z M192.3,126.7
					c-1-2.1-3.1-3.9-6.3-3.9c-2.6,0-5,1.3-6.1,3.3c-1,1.9-1.4,4.3-1.4,7.8c0,4.3,0.7,8,1.8,9.9c1.1,1.8,3.7,3.1,6.1,3.1
					c2.3,0,4-0.8,5.3-2.4c1.4-1.8,2.1-4.1,2.1-8.7C193.6,131.6,193.2,128.7,192.3,126.7z"/>
				<path class="st0" d="M220.6,147.3c-1.7,1.5-4,2.2-7.5,2.2c-4.4,0-6.9-1.3-8.4-4.1c-0.8-1.4-0.8-3.2-0.8-4.4v-20.4h3.4v19.1
					c0,1.4,0.1,3.2,0.5,4.1c0.5,1.2,2.1,2.8,5.6,2.8c2.4,0,4.1-0.6,5-1.8c1-1.3,1.1-2.5,1.1-4.4v-19.8h3.4v20.2
					C222.7,144.2,222.3,145.9,220.6,147.3z"/>
				<path class="st0" d="M245.5,135.5c-1.9,1.7-4,2.2-6.9,2.2h-5V149h-3.3v-28.4h7.9c3.1,0,4.7,0.3,6.2,1.3c2.4,1.6,3.6,3.9,3.6,6.8
					C248.1,131.6,247.4,133.8,245.5,135.5z M242.7,124.8c-1.2-1-2.7-1.4-5.4-1.4h-3.6v11.5h4.8c2.4,0,3.5-0.5,4.4-1.5
					c1-1.1,1.4-2.4,1.4-4C244.4,127.2,243.9,125.8,242.7,124.8z"/>
			</g>
		</g>
	</g>
	<path class="st0" d="M113.6,101.1v-52H90.8c-1.2-2.8-1.9-6.5-1.9-10.7c0-4.1,0.7-7.8,1.9-10.7h66.9c1.2,2.8,1.9,6.5,1.9,10.7
		c0,4.1-0.7,7.8-1.9,10.7h-22.8v52H113.6z"/>
</g>
</svg>
