<?xml version="1.0" encoding="utf-8"?>
<!-- Generator: Adobe Illustrator 20.1.0, SVG Export Plug-In . SVG Version: 6.00 Build 0)  -->
<svg version="1.1" id="Capa_1" xmlns="http://www.w3.org/2000/svg" xmlns:xlink="http://www.w3.org/1999/xlink" x="0px" y="0px"
	 viewBox="0 0 512 512" style="enable-background:new 0 0 512 512;" xml:space="preserve">
<style type="text/css">
	.st0{fill:#FFFFFF;}
</style>
<g>
	<path class="st0" d="M153,345.4L153,345.4c20.3,5.7,45.4,12,71.8,14.7c-2.3-0.8-4.8-1.6-7.1-2.2c-26.1-8-50.7-12.8-74.4-14.8
		C146.3,343.9,149.8,344.7,153,345.4L153,345.4z"/>
	<path class="st0" d="M250,368.7c-32.8,0-66-7.1-98.9-16.2c-14.7-3.9-29.8-5.9-44.9-5.9c-34.8,0-69.2,10.4-97.7,31.9
		c27.4-11.7,54.2-16.9,81.2-16.9c23.4,0,47.2,4,71.4,11.6c22,7.6,46.3,11.8,70.8,11.8c21.7,0,43.2-3.3,63-10.8
		c-12.7-1-25.1-2.8-37.7-5.2C255.1,368.7,252.7,368.7,250,368.7z"/>
	<path class="st0" d="M68.1,312.8c24-7.8,49.2-11.7,75-11.7c22.1,0,44.1,2.9,65.7,8.7l0,0l0,0c37.7,10.6,87,22.6,136.2,22.6
		c26.8,0,51.4-3.4,74.9-10.7L506,156.1c0,0-181-18.2-497.2,137.1v45.2h4.7C30.2,327.8,48.7,319,68.1,312.8z M272.8,220.2
		c7.3,0,13.3,6,13.3,13.3c0,7.3-6,13.3-13.3,13.3s-13.3-6-13.3-13.3C259.3,226.2,265.3,220.2,272.8,220.2z M230.3,233.7
		c7.3,0,13.3,6,13.3,13.3s-6,13.3-13.3,13.3c-7.3,0-13.3-6-13.3-13.3C217,239.7,223,233.7,230.3,233.7z M189.7,247
		c7.3,0,13.3,6,13.3,13.3c0,7.3-6,13.3-13.3,13.3s-13.3-6-13.3-13.3C176.2,253,182.2,247,189.7,247z"/>
	<path class="st0" d="M206.1,319.4c-20.7-5.4-41.9-8.2-63-8.2C94.2,311.2,45.9,326,6,356c38.7-16.3,76.2-23.8,114.1-23.8
		c33,0,66.2,5.7,100.4,16.1c30.9,10.4,65.1,16.3,99.3,16.3c56.7,0,113.2-16.3,153.7-55.8c-41.7,24.3-84.9,33.4-128.8,33.4
		C298.9,342.3,252.1,332.3,206.1,319.4z"/>
	<path class="st0" d="M113.7,154.1l4.1,13.3c7.6-3.1,28.1-11.3,51.4-16.9c4.6-1,9,1.8,10,6.2c1,4.4-1.8,9-6.2,10
		c-24,5.7-45.4,14.7-50.3,16.8l11.9,39c0,0,104.4-49.1,227.2-67.1l-118.3-26.6c0,0-88.2-11.1-166.8,25.2
		C76.7,154.2,93.3,159.3,113.7,154.1z"/>
</g>
</svg>
