<?xml version="1.0" encoding="iso-8859-1"?>
<!-- Generator: Adobe Illustrator 19.0.0, SVG Export Plug-In . SVG Version: 6.00 Build 0)  -->
<svg xmlns="http://www.w3.org/2000/svg" xmlns:xlink="http://www.w3.org/1999/xlink" version="1.1" id="Layer_1" x="0px" y="0px" viewBox="0 0 512 512" style="enable-background:new 0 0 512 512;" xml:space="preserve" width="512px" height="512px">
<g>
	<g>
		<g>
			<path d="M483.556,82.747h-43.96v-2.586c0-4.285-3.473-7.758-7.758-7.758h-23.273v-2.586c0-4.285-3.473-7.758-7.758-7.758H264.671     c3.513-14.807,16.837-25.859,32.703-25.859h41.374c4.284,0,7.758-3.472,7.758-7.758s-3.473-7.758-7.758-7.758h-41.374     c-24.451,0-44.782,17.956-48.513,41.374H111.192c-4.284,0-7.758,3.472-7.758,7.758v2.586H80.162     c-4.284,0-7.758,3.472-7.758,7.758v2.586h-43.96C12.76,82.747,0,95.508,0,111.192c0,15.684,12.76,28.444,28.444,28.444h43.96     v2.586c0,4.285,3.473,7.758,7.758,7.758h23.273v2.586c0,4.285,3.473,7.758,7.758,7.758h64.645v188.768     c0,0.017,0.003,0.032,0.003,0.049c0.028,18.849,16.541,34.894,41.372,43.139v29.216c0,4.285,3.473,7.758,7.758,7.758h7.758     v54.303c0,4.285,3.473,7.758,7.758,7.758h31.03c4.284,0,7.758-3.472,7.758-7.758v-54.303h7.758c4.284,0,7.758-3.472,7.758-7.758     v-29.216c24.851-8.253,41.374-24.318,41.374-43.188l-0.001-0.01V160.323h64.648c4.284,0,7.758-3.472,7.758-7.758v-2.586h23.273     c4.284,0,7.758-3.472,7.758-7.758v-2.586h43.96c15.685,0,28.444-12.761,28.444-28.444C512,95.508,499.24,82.747,483.556,82.747z      M72.404,124.121h-43.96c-7.13,0-12.929-5.8-12.929-12.929c0-7.13,5.8-12.929,12.929-12.929h43.96V124.121z M103.434,134.465     H87.919V87.919h15.515V134.465z M263.758,475.798h-15.515v-46.545h15.515V475.798z M279.273,413.737h-46.545v-17.55     c7.341,1.319,15.144,2.035,23.273,2.035s15.932-0.715,23.273-2.035V413.737z M256,382.707c-29.927,0-55.87-11.23-62.813-25.859     h125.624C311.87,371.477,285.927,382.707,256,382.707z M320.645,341.333H191.352v-148.77     c10.886,11.954,26.558,19.477,43.961,19.477h41.374c17.41,0,33.079-10.122,43.959-23.133V341.333z M393.051,144.808h-64.646     h-0.001c-4.284,0-7.758,3.472-7.758,7.758v0.012c-0.01,14.858-19.908,43.947-43.959,43.947h-41.374     c-24.24,0-43.96-19.72-43.96-43.96c0-4.285-3.473-7.758-7.758-7.758H118.95V77.576h274.101V144.808z M424.081,134.465h-15.515     V87.919h15.515V134.465z M483.556,124.121h-43.96V98.263h43.96c7.13,0,12.929,5.8,12.929,12.929     C496.485,118.322,490.685,124.121,483.556,124.121z" fill="#FFFFFF"/>
			<path d="M162.909,118.95h186.182c4.284,0,7.758-3.472,7.758-7.758c0-4.285-3.473-7.758-7.758-7.758H162.909     c-4.284,0-7.758,3.472-7.758,7.758C155.152,115.477,158.625,118.95,162.909,118.95z" fill="#FFFFFF"/>
		</g>
	</g>
</g>
<g>
</g>
<g>
</g>
<g>
</g>
<g>
</g>
<g>
</g>
<g>
</g>
<g>
</g>
<g>
</g>
<g>
</g>
<g>
</g>
<g>
</g>
<g>
</g>
<g>
</g>
<g>
</g>
<g>
</g>
</svg>
