<?xml version="1.0" encoding="utf-8"?>
<!-- Generator: Adobe Illustrator 20.1.0, SVG Export Plug-In . SVG Version: 6.00 Build 0)  -->
<svg version="1.1" id="Layer_1" xmlns="http://www.w3.org/2000/svg" xmlns:xlink="http://www.w3.org/1999/xlink" x="0px" y="0px"
	 viewBox="0 0 512 512" style="enable-background:new 0 0 512 512;" xml:space="preserve">
<style type="text/css">
	.st0{fill:#FFFFFF;}
</style>
<g>
	<g>
		<g>
			<rect x="219.3" y="379.6" class="st0" width="16.3" height="12"/>
			<rect x="194.7" y="379.6" class="st0" width="16.3" height="12"/>
			<path class="st0" d="M417.3,415.4V194.2c0-19.5-11.1-37.6-28.6-47.1v-30.7h-20.5V98.4c0-5.6-3.8-13.9-14.3-13.9H235.5
				c-5.7,0-14.3,3.8-14.3,13.9V210c-0.1,2.1-1.1,2.1-2.1,2.1h-36.7c-8.6,0-14.3,4-14.3,9.9v13.9h-53V264H96.8
				c-12.3,0-22.4,9.8-22.4,21.9v129.6H56v11.9h400v-12H417.3z M127.4,248h93.8v16h-93.8V248z M262.2,415.4H86.6v-55.8h175.5
				L262.2,415.4L262.2,415.4z M262.2,347.7H86.6v-35.9h175.5L262.2,347.7L262.2,347.7z M262.2,299.9H86.6v-13.9
				c0-5.5,4.6-9.9,10.2-9.9h155.1c5.6,0,10.2,4.5,10.2,9.9v13.9H262.2z M307,415.4h-32.7V286c0-12.1-10.1-21.9-22.4-21.9h-18.4
				v-27.9h-53v-11.8c0.7-0.1,1.4-0.2,2.1-0.2h36.7c10.5,0,14.3-8.3,14.3-13.9V98.5c0-0.8,0-1.9,2.2-1.9h118.3c0.9,0,1.9,0,2.1,2.1
				v17.8h-20.5v30.7c-17.5,9.4-28.6,27.5-28.6,47.1L307,415.4L307,415.4z M319.3,240H356v43.9h-36.7V240z M405,415.4h-85.7v-16H405
				V415.4z M405,387.6h-85.7v-91.7H405V387.6z M405,283.9h-36.7V240H405V283.9z M405,228.1h-85.7v-33.9c0-16.2,9.8-31.1,25-37.9
				l3.5-1.6v-26.3h28.6v26.3l3.5,1.6c15.2,6.9,25,21.7,25,37.9V228.1z"/>
		</g>
	</g>
</g>
</svg>
