<?xml version="1.0" encoding="utf-8"?>
<!-- Generator: Adobe Illustrator 20.1.0, SVG Export Plug-In . SVG Version: 6.00 Build 0)  -->
<svg version="1.1" id="Capa_1" xmlns="http://www.w3.org/2000/svg" xmlns:xlink="http://www.w3.org/1999/xlink" x="0px" y="0px"
	 viewBox="0 0 512 512" style="enable-background:new 0 0 512 512;" xml:space="preserve">
<style type="text/css">
	.st0{fill:#FFFFFF;}
</style>
<g>
	<path class="st0" d="M424.5,338.7l-5-231c1.5-0.5,2.6-2,2.6-3.7c0-1.7-1.2-3.2-2.7-3.7l-0.2-8.7c0-2.1-1.8-3.8-3.9-3.8h-19.4
		c-2.1,0-3.9,1.7-3.9,3.8l-0.2,8.7c-1.6,0.5-2.7,2-2.7,3.7c0,1.7,1.1,3.1,2.6,3.7l-5,231h-20.9v16.6h-42.9
		c-7.8-36.2-11.8-73.1-12.1-110.1h1.7c2.2,0,3.9-1.7,3.9-3.9s-1.7-3.9-3.9-3.9h-1.7h-95.1h-1.7c-2.2,0-3.9,1.7-3.9,3.9
		s1.7,3.9,3.9,3.9h1.6c-0.2,24.1-1.9,48.3-5.3,72.1c-1,6.9-2.1,13.8-3.3,20.7c-6.3-33.3-9.5-67.2-9.8-101.1h1.8
		c2.2,0,3.9-1.7,3.9-3.9s-1.7-3.9-3.9-3.9H96.1c-2.2,0-3.9,1.7-3.9,3.9s1.7,3.9,3.9,3.9h1.8c-0.4,52-7.8,103.7-22.2,153.7L66,424.2
		h380v-85.5H424.5z M398.6,142.1h13.8l0.6,26.3H398L398.6,142.1z M397.9,176.2h15.3l0.6,26.3h-16.4L397.9,176.2z M412.2,134.3h-13.5
		l0.6-26.3h12.3L412.2,134.3z M397.1,210.4h16.8l0.6,26.3h-17.9L397.1,210.4z M396.4,244.5h18.2l0.6,26.3h-19.4L396.4,244.5z
		 M395.7,278.7h19.7l0.6,26.3h-20.9L395.7,278.7z M411.4,95.6l0.1,4.5h-12l0.1-4.5H411.4z M394.9,312.8h21.2l0.6,25.9h-22.3
		L394.9,312.8z M303.2,262.5h-80.3c0.1-1.3,0.1-2.7,0.1-4h80.1C303.1,259.8,303.2,261.1,303.2,262.5z M282.5,250.6v-5.5h7.7v5.5
		H282.5z M274.7,250.6H267v-5.5h7.7V250.6z M259.2,250.6h-7.7v-5.5h7.7V250.6z M243.6,250.6h-7.7v-5.5h7.7V250.6z M302.9,250.6H298
		v-5.5h4.8C302.8,247,302.9,248.8,302.9,250.6z M228.1,245.2v5.5h-4.9c0-1.8,0.1-3.6,0.1-5.5H228.1z M189.7,255.7h-84.4
		c0.1-1.6,0.1-3.3,0.2-4.9h84.1C189.6,252.4,189.6,254.1,189.7,255.7z M176.1,243h-8.5v-6.1h8.5V243z M183.9,236.9h5.4
		c0,2,0.1,4,0.1,6.1h-5.4L183.9,236.9L183.9,236.9z M135.1,243v-6.1h8.5v6.1H135.1z M151.4,236.9h8.5v6.1h-8.5V236.9z M127.3,236.9
		v6.1h-8.5v-6.1H127.3z M111.1,236.9v6.1h-5.4c0-2,0.1-4,0.1-6.1H111.1z M76.4,416.4l6.8-23.7c12.1-42.2,19.4-85.5,21.7-129.2h85.2
		c2.3,43.7,9.6,87.1,21.7,129.2l6.8,23.7H76.4z M226.7,416.4l-7.4-25.8c-3.1-10.9-5.9-21.8-8.4-32.9c2.8-12.9,5.2-26.2,7-39.3
		c2.2-15.9,3.8-32,4.6-48.1h81c2.2,41.9,9.1,83.4,20.8,123.7l6.4,22.4L226.7,416.4L226.7,416.4z M438.2,416.4h-99.3l-7.1-24.5
		c-2.7-9.5-5.2-19.1-7.4-28.7h49v-16.6h64.8L438.2,416.4L438.2,416.4z"/>
	<rect x="381.6" y="387.6" class="st0" width="7.8" height="15.4"/>
	<rect x="361.9" y="387.6" class="st0" width="7.8" height="15.4"/>
	<rect x="342.3" y="387.6" class="st0" width="7.8" height="15.4"/>
	<rect x="401.3" y="387.6" class="st0" width="7.8" height="15.4"/>
	<rect x="421" y="387.6" class="st0" width="7.8" height="15.4"/>
	<rect x="381.6" y="353.7" class="st0" width="7.8" height="21.6"/>
	<rect x="401.3" y="353.7" class="st0" width="7.8" height="21.6"/>
	<rect x="421" y="353.7" class="st0" width="7.8" height="21.6"/>
</g>
</svg>
