<?xml version="1.0" encoding="utf-8"?>
<!-- Generator: Adobe Illustrator 20.1.0, SVG Export Plug-In . SVG Version: 6.00 Build 0)  -->
<svg version="1.1" id="Layer_1" xmlns="http://www.w3.org/2000/svg" xmlns:xlink="http://www.w3.org/1999/xlink" x="0px" y="0px"
	 viewBox="0 0 512 512" style="enable-background:new 0 0 512 512;" xml:space="preserve">
<style type="text/css">
	.st0{fill:#FFFFFF;}
</style>
<g>
	<g>
		<g>
			<path class="st0" d="M222.6,296c0.5,0,0.9,0,1.3-0.1l66.6-13.4c3.7-0.7,5.9-4.2,5.3-7.9c-0.7-3.7-4.2-5.9-7.9-5.3l-25.4,5v-25.1
				c0-3.7-3-6.6-6.6-6.6c-3.7,0-6.6,3-6.6,6.6v27.9l-28,5.6c-3.7,0.7-5.9,4.2-5.3,7.9C216.8,293.8,219.5,296,222.6,296z"/>
			<path class="st0" d="M222.6,349.4c0.5,0,0.9,0,1.3-0.1l66.6-13.4c3.7-0.7,5.9-4.2,5.3-7.9c-0.7-3.7-4.2-5.9-7.9-5.3l-66.6,13.4
				c-3.7,0.7-5.9,4.2-5.3,7.9C216.8,347.1,219.5,349.4,222.6,349.4z"/>
			<path class="st0" d="M256,229.4c22.1,0,40-17.9,40-40s-17.9-40-40-40c-22.1,0-40,17.9-40,40S233.9,229.4,256,229.4z M256,162.6
				c14.7,0,26.6,12,26.6,26.6c0,14.7-12,26.6-26.6,26.6c-14.6,0-26.6-12-26.6-26.6C229.4,174.6,241.3,162.6,256,162.6z"/>
			<path class="st0" d="M245.1,108.9l20-8l-8.8,26.4c-1.1,3.5,0.7,7.3,4.2,8.5c0.7,0.2,1.4,0.3,2.1,0.3c2.7,0,5.4-1.7,6.3-4.6
				l13.4-40c0.8-2.5,0.1-5.1-1.7-7c-1.9-1.8-4.7-2.3-7.1-1.4l-20,8l8.8-26.4c1.1-3.5-0.7-7.3-4.2-8.5c-3.5-1.1-7.3,0.7-8.5,4.2
				l-13.4,40c-0.8,2.5-0.1,5.1,1.7,7C240,109.3,242.7,109.8,245.1,108.9z"/>
			<path class="st0" d="M222.6,322.6c0.5,0,0.9,0,1.3-0.1l66.6-13.4c3.7-0.7,5.9-4.2,5.3-7.9c-0.7-3.7-4.2-5.9-7.9-5.3l-66.6,13.4
				c-3.7,0.7-5.9,4.2-5.3,7.9C216.8,320.5,219.5,322.6,222.6,322.6z"/>
			<path class="st0" d="M401,71.7c-2.4-2.7-6.6-3.1-9.4-0.7L345,111c-2.2,1.8-2.9,4.8-1.9,7.4c0.9,2.6,3.4,4.3,6.3,4.3h14.3
				l-51.8,41.5c-2.9,2.3-3.3,6.5-1,9.4c1.4,1.6,3.2,2.5,5.3,2.5c1.5,0,3-0.5,4.1-1.5l66.6-53.4c2.2-1.7,3.1-4.7,2.2-7.4
				c-0.9-2.6-3.4-4.5-6.3-4.5h-15.3l33-28.2C403.1,78.6,403.4,74.5,401,71.7z"/>
			<path class="st0" d="M329.4,416h-66.6c0-3.7-3-6.6-6.6-6.6c-3.7,0-6.6,3-6.6,6.6h-66.6c-11.2,0-20,8.8-20,20v13.4
				c0,3.7,3,6.6,6.6,6.6c3.7,0,6.6-3,6.6-6.6V436c0-3.2,2.3-6.6,6.6-6.6h146.6c4,0,6.6,2.6,6.6,6.6v13.4c0,3.7,3,6.6,6.6,6.6
				c3.7,0,6.6-3,6.6-6.6V436C349.4,424.6,340.7,416,329.4,416z"/>
			<path class="st0" d="M222.6,376c0.5,0,0.9,0,1.3-0.1l66.6-13.4c3.7-0.7,5.9-4.2,5.3-7.9c-0.7-3.7-4.2-5.9-7.9-5.3l-66.6,13.4
				c-3.7,0.7-5.9,4.2-5.3,7.9C216.8,373.8,219.5,376,222.6,376z"/>
			<path class="st0" d="M222.6,402.6c0.5,0,0.9,0,1.3-0.1l66.6-13.4c3.7-0.7,5.9-4.2,5.3-7.9c-0.7-3.7-4.2-5.9-7.9-5.3l-66.6,13.4
				c-3.7,0.7-5.9,4.2-5.3,7.9C216.8,400.5,219.5,402.6,222.6,402.6z"/>
			<path class="st0" d="M162.6,106.9l41.7,46.9c2.4,2.7,6.6,3,9.4,0.6c2.7-2.4,3-6.6,0.6-9.4l-53.4-60c-1.8-2.1-4.8-2.7-7.3-1.8
				c-2.6,1-4.3,3.4-4.3,6.3V140l-28.6-28.6c-2.6-2.6-6.9-2.6-9.4,0s-2.6,6.9,0,9.4l40,40c1.3,1.3,3,1.9,4.7,1.9
				c0.9,0,1.7-0.1,2.5-0.5c2.5-1,4.1-3.4,4.1-6.2L162.6,106.9L162.6,106.9z"/>
		</g>
	</g>
</g>
</svg>
