<?xml version="1.0" encoding="utf-8"?>
<!-- Generator: Adobe Illustrator 20.1.0, SVG Export Plug-In . SVG Version: 6.00 Build 0)  -->
<svg version="1.1" id="Layer_1" xmlns="http://www.w3.org/2000/svg" xmlns:xlink="http://www.w3.org/1999/xlink" x="0px" y="0px"
	 viewBox="0 0 512 512" style="enable-background:new 0 0 512 512;" xml:space="preserve">
<style type="text/css">
	.st0{fill:#FFFFFF;}
</style>
<g>
	<g>
		<rect x="159.1" y="188.1" class="st0" width="69.8" height="11.6"/>
	</g>
</g>
<g>
	<g>
		<rect x="135.8" y="188.1" class="st0" width="15.5" height="11.6"/>
	</g>
</g>
<g>
	<g>
		<rect x="236.6" y="188.1" class="st0" width="15.5" height="11.6"/>
	</g>
</g>
<g>
	<g>
		<rect x="298.7" y="192" class="st0" width="69.8" height="11.6"/>
	</g>
</g>
<g>
	<g>
		<rect x="248.2" y="273.4" class="st0" width="15.5" height="11.6"/>
	</g>
</g>
<g>
	<g>
		<rect x="139.7" y="273.4" class="st0" width="15.5" height="11.6"/>
	</g>
</g>
<g>
	<g>
		<rect x="356.8" y="273.4" class="st0" width="15.5" height="11.6"/>
	</g>
</g>
<g>
	<g>
		<path class="st0" d="M409.2,416.9V316.1h21.3c7.5,0,13.6-6.1,13.6-13.6V256c0-5.4-3.2-10.1-7.8-12.2v-28.5h-34.9v-93.1H277.3V83.4
			H110.6v131.8H75.7v28.5c-4.6,2.2-7.8,6.8-7.8,12.2v46.5c0,7.5,6.1,13.6,13.6,13.6h21.3v100.8H66v11.6h380v-11.6L409.2,416.9
			L409.2,416.9z M432.4,302.5c0,1.1-0.9,1.9-1.9,1.9h-39.1c4.9-5.3,8.4-12,9.5-19.4h31.5L432.4,302.5L432.4,302.5z M432.4,256v17.4
			h-31.5c-1.2-7.4-4.6-14.1-9.5-19.4h39.1C431.5,254.1,432.4,254.9,432.4,256z M320,133.9h27.1v34.9H320V133.9L320,133.9z
			 M277.3,133.9h31v46.5h50.4v-46.5h31v81.4H277.3V133.9z M226.9,95.1h38.8v11.6h-38.8L226.9,95.1L226.9,95.1z M172.6,95.1h42.7
			v23.3h-42.7V95.1z M172.6,130h42.7v15.5h-42.7V130z M122.2,95.1H161v11.6h-38.8V95.1z M122.2,118.3H161v38.8h65.9v-38.8h38.8v96.9
			H122.2V118.3z M87.3,226.9h337.3v15.5H87.3V226.9z M389.8,279.3c0,13.9-11.3,25.2-25.2,25.2c-13.9,0-25.2-11.3-25.2-25.2
			c0-13.9,11.3-25.2,25.2-25.2C378.5,254.1,389.8,265.4,389.8,279.3z M328.2,273.4h-35.8c-1.2-7.4-4.6-14.1-9.5-19.4h54.9
			C332.8,259.3,329.4,266,328.2,273.4z M337.7,304.5h-54.9c4.9-5.3,8.4-12,9.5-19.4h35.8C329.4,292.5,332.8,299.2,337.7,304.5z
			 M281.2,279.3c0,13.9-11.3,25.2-25.2,25.2s-25.2-11.3-25.2-25.2c0-13.9,11.3-25.2,25.2-25.2S281.2,265.4,281.2,279.3z
			 M219.6,273.4h-35.8c-1.2-7.4-4.6-14.1-9.5-19.4h54.9C224.2,259.3,220.8,266,219.6,273.4z M229.2,304.5h-54.9
			c4.9-5.3,8.4-12,9.5-19.4h35.8C220.8,292.5,224.2,299.2,229.2,304.5z M172.6,279.3c0,13.9-11.3,25.2-25.2,25.2
			c-13.9,0-25.2-11.3-25.2-25.2c0-13.9,11.3-25.2,25.2-25.2C161.3,254.1,172.6,265.4,172.6,279.3z M79.6,256c0-1.1,0.9-1.9,1.9-1.9
			h39.1c-4.9,5.3-8.4,12-9.5,19.4H79.6V256z M81.5,304.5c-1.1,0-1.9-0.9-1.9-1.9v-17.4h31.5c1.2,7.4,4.6,14.1,9.5,19.4H81.5z
			 M133.9,416.9h-19.4v-69.8h19.4L133.9,416.9L133.9,416.9z M366.5,416.9h-221v-69.8h221V416.9L366.5,416.9z M397.5,416.9h-19.4
			v-69.8h19.4V416.9z M397.5,335.5H114.5v-19.4h283.1V335.5z"/>
	</g>
</g>
</svg>
