<?xml version="1.0" encoding="utf-8"?>
<!-- Generator: Adobe Illustrator 20.1.0, SVG Export Plug-In . SVG Version: 6.00 Build 0)  -->
<svg version="1.1" id="Capa_1" xmlns="http://www.w3.org/2000/svg" xmlns:xlink="http://www.w3.org/1999/xlink" x="0px" y="0px"
	 viewBox="0 0 512 512" style="enable-background:new 0 0 512 512;" xml:space="preserve">
<style type="text/css">
	.st0{fill:#FFFFFF;}
</style>
<g>
	<g>
		<path class="st0" d="M239.7,431.1c5.1,0,9.4-4.2,9.4-9.4c0-5.1-4.2-9.4-9.4-9.4s-9.4,4.2-9.4,9.4
			C230.4,426.8,234.5,431.1,239.7,431.1z"/>
		<path class="st0" d="M177.1,429.9c4.6,0,8.2-3.7,8.2-8.2s-3.7-8.2-8.2-8.2c-4.6,0-8.2,3.7-8.2,8.2S172.5,429.9,177.1,429.9z"/>
		<path class="st0" d="M305,429.9c4.6,0,8.2-3.7,8.2-8.2s-3.7-8.2-8.2-8.2s-8.2,3.7-8.2,8.2C296.7,426.3,300.5,429.9,305,429.9z"/>
		<path class="st0" d="M108.3,429.9c4.6,0,8.2-3.7,8.2-8.2s-3.7-8.2-8.2-8.2c-4.6,0-8.2,3.7-8.2,8.2
			C100,426.3,103.8,429.9,108.3,429.9z"/>
		<path class="st0" d="M388.5,455.6v-2.3c15.8-1.9,28-15.4,28-31.7s-12.2-29.7-28-31.7v-2.3H83.9v2.3c-15.8,1.9-28,15.4-28,31.7
			c0,16.2,12.2,29.7,28,31.7v2.3H388.5L388.5,455.6z M108.3,405.6c7.5,0,13.8,5.3,15.7,12.2h37.5c1.8-7,8.1-12.2,15.7-12.2
			s13.8,5.3,15.7,12.2h30.1c1.8-7.7,8.7-13.3,16.8-13.3c8.1,0,15,5.7,16.8,13.3h32.8c1.8-7,8.1-12.2,15.7-12.2s13.8,5.3,15.7,12.2
			h33.3c1.8-7,8.1-12.2,15.7-12.2c8.9,0,16.2,7.3,16.2,16.2c0,8.9-7.3,16.2-16.2,16.2c-7.5,0-13.8-5.3-15.7-12.2h-33.3
			c-1.8,7-8.1,12.2-15.7,12.2s-13.8-5.3-15.7-12.2h-32.8c-1.8,7.7-8.7,13.4-16.8,13.4c-8.1,0-15-5.7-16.8-13.4h-30.2
			c-1.8,7-8.1,12.2-15.7,12.2s-13.8-5.3-15.7-12.2h-37.5c-1.8,7-8.1,12.2-15.7,12.2c-8.9,0-16.2-7.3-16.2-16.2
			C92,412.8,99.4,405.6,108.3,405.6z"/>
		<path class="st0" d="M369.6,429.9c4.6,0,8.2-3.7,8.2-8.2s-3.7-8.2-8.2-8.2s-8.2,3.7-8.2,8.2C361.3,426.3,365.1,429.9,369.6,429.9z
			"/>
		<path class="st0" d="M442.1,60.3C442.1,60.2,442.1,60.2,442.1,60.3c0-0.1,0-0.2-0.1-0.3c0-0.2-0.1-0.5-0.1-0.7
			c0-0.1,0-0.2-0.1-0.3l0,0v-0.1c0-0.1-0.1-0.2-0.2-0.3c0-0.1,0-0.2-0.1-0.3c-0.1-0.1-0.2-0.2-0.2-0.2c-0.1-0.1-0.1-0.2-0.2-0.3
			c0,0,0,0-0.1,0l0,0c-0.1-0.1-0.2-0.1-0.2-0.1c-0.2-0.1-0.3-0.2-0.6-0.3c-0.1,0-0.2-0.1-0.3-0.2h-0.1c-0.1,0-0.2,0-0.3-0.1
			c-0.2-0.1-0.5-0.1-0.7-0.1c-0.1,0-0.2-0.1-0.3-0.1c0,0,0,0-0.1,0l0,0c-0.1,0-0.2,0-0.3,0c-0.2,0-0.5,0.1-0.7,0.1
			c-0.1,0-0.2,0-0.3,0.1L98.7,187c0,0,0,0-0.1,0h-0.1l0,0c-0.1,0.1-0.2,0.2-0.5,0.3c-0.1,0-0.1,0.1-0.2,0.1
			c-0.1,0.1-0.3,0.2-0.5,0.3c0,0,0,0.1-0.1,0.1c-0.2,0.2-0.2,0.5-0.5,0.6c-0.1,0.2-0.2,0.3-0.3,0.6v0.1c-0.1,0.2-0.1,0.5-0.1,0.7
			c0,0.2-0.1,0.5-0.1,0.7c0,0,0,0,0,0.1v136.4H55.9v43.2h180.3h60.5h35c0,0,37.9-43.1,0-91.3c0,0-52.1-21.4-82.7,0
			c0,0-9.9,25.8-13,48.1h-53.9l89.5-89.4l0,0l44.3-44.1l0,0l0,0l0,0l56.3-58.8l0,0l26.4-27.7l0,0l35.2-36.8v195.2
			c0,0.3,0.1,0.7,0.2,0.9c-8.1,1.7-14.3,9-14.3,17.6c0,8.6,6.1,15.8,14.1,17.6v12c0,1.4,0.7,2.6,1.8,3.4l6.5,4.1c0.7,0.8,1,1.8,1,3
			c0,1.3-0.5,2.4-1.4,3.2c-1.7,1.7-4.7,1.8-6.4,0c-1.6-1.6-4.1-1.6-5.6,0c-1.6,1.6-1.6,4.1,0,5.6c2.4,2.4,5.7,3.7,8.9,3.7
			s6.4-1.3,8.9-3.7c2.4-2.4,3.7-5.5,3.7-8.9c0-3.3-1.3-6.5-3.7-8.9c-0.2-0.2-0.5-0.5-0.7-0.6l-5.1-3.2v-9.7c8-1.8,14.1-9,14.1-17.6
			c0-8.7-6.1-15.9-14.3-17.6c0.1-0.3,0.2-0.6,0.2-0.9L442.1,60.3L442.1,60.3z M276.5,286.1h46.2c10.1-2.1,12,50.2,12,50.2h-58.2
			V286.1z M104,327.2V209l54.4,118.2H104L104,327.2z M171.9,327.2h-4.6L134.5,256l123-75.6l-4.9,8.3l0,0L171.9,327.2z M195.5,302.5
			l16.9-29h12.1L195.5,302.5z M226.4,265.5h-9.3l9.3-15.9V265.5z M234.4,263.8v-24.8h24.9L234.4,263.8z M237.4,230.9l17.6-30.1
			l8.7,30.1H237.4z M270.9,227.3l-9.4-32.6h42.1L270.9,227.3z M263.1,186.7l8.9-15.2l22.9-14.6l12.3,29.8H263.1z M314.6,183.5
			l-11.7-28.2l36.8,2.1L314.6,183.5z M309.3,147.6l25.3-16.2l7.8,18.1L309.3,147.6z M349.8,146.7l-6.9-15.8l18.6,3.5L349.8,146.7z
			 M365.6,127l-18.6-3.5l18.6-11.9V127z M334.1,122.2l-40,25.6l0,0l-27.2,17.4l0,0l-135.7,83.4l-25.6-55.8L402.7,78.1L334.1,122.2z
			 M373.6,121.9v-13.7h13.2L373.6,121.9z M394.4,100.2h-11.1L412,81.8L394.4,100.2z M448.1,284c0,5.5-4.5,10.1-10.1,10.1
			c-5.5,0-10.1-4.5-10.1-10.1c0-5.5,4.5-10.1,10.1-10.1S448.1,278.5,448.1,284z"/>
	</g>
</g>
</svg>
