<?xml version="1.0" encoding="utf-8"?>
<!-- Generator: Adobe Illustrator 20.1.0, SVG Export Plug-In . SVG Version: 6.00 Build 0)  -->
<svg version="1.1" id="Слой_1" xmlns="http://www.w3.org/2000/svg" xmlns:xlink="http://www.w3.org/1999/xlink" x="0px" y="0px"
	 viewBox="0 0 168.5 604.5" style="enable-background:new 0 0 168.5 604.5;" xml:space="preserve">
<style type="text/css">
	.st0{fill:#333333;}
	.st1{fill:#4D4D4D;}
	.st2{fill:#666666;}
	.st3{fill:#B3B3B3;}
	.st4{clip-path:url(#SVGID_2_);fill:#B3B3B3;}
	.st5{clip-path:url(#SVGID_2_);fill:#CCCCCC;}
	.st6{clip-path:url(#SVGID_2_);fill:#FFFFFF;}
	.st7{fill:none;stroke:#999999;stroke-width:2;stroke-miterlimit:10;}
	.st8{fill:#303030;}
	.st9{fill:none;stroke:#191919;stroke-width:4;stroke-miterlimit:10;}
	.st10{fill:#282828;}
	.st11{clip-path:url(#SVGID_4_);fill:url(#SVGID_5_);}
	.st12{fill:none;stroke:#112B06;stroke-width:3;stroke-miterlimit:10;}
	.st13{fill:#262626;}
	.st14{fill:none;stroke:#333333;stroke-width:3;stroke-miterlimit:10;}
	.st15{fill:none;stroke:#333333;stroke-width:5;stroke-miterlimit:10;}
	.st16{clip-path:url(#SVGID_7_);fill:url(#SVGID_8_);}
	.st17{fill:none;stroke:#666666;stroke-width:1.5;stroke-miterlimit:10;}
	.st18{fill:url(#SVGID_9_);}
	.st19{fill:url(#SVGID_10_);}
	.st20{opacity:0.4;fill:url(#SVGID_11_);}
	.st21{opacity:0.3;fill:#FFFFFF;}
	.st22{fill:url(#SVGID_12_);}
	.st23{fill:none;stroke:#191919;stroke-width:3;stroke-miterlimit:10;}
	.st24{fill:#4D4D4D;stroke:#333333;stroke-miterlimit:10;}
	.st25{fill:#CCCCCC;}
	.st26{fill:url(#SVGID_13_);}
</style>
<g>
	<g>
		<rect x="59.1" y="402.4" class="st0" width="54.1" height="192.4"/>
		<rect x="64.1" y="402.4" class="st1" width="34.1" height="192.4"/>
		<rect x="67.8" y="402.4" class="st2" width="18.6" height="192.4"/>
		<rect x="72.1" y="402.4" class="st3" width="8.1" height="192.4"/>
	</g>
	<g>
		<g>
			<g>
				<defs>
					<path id="SVGID_1_" d="M130.2,403.5H42.1c-17.9,0-32.5-14.6-32.5-32.5V40.7c0-17.9,14.6-32.5,32.5-32.5h88.1
						c17.9,0,32.5,14.6,32.5,32.5V371C162.7,388.9,148.1,403.5,130.2,403.5z M42.1,26c-8.1,0-14.7,6.6-14.7,14.7V371
						c0,8.1,6.6,14.7,14.7,14.7h88.1c8.1,0,14.7-6.6,14.7-14.7V40.7c0-8.1-6.6-14.7-14.7-14.7H42.1z"/>
				</defs>
				<clipPath id="SVGID_2_">
					<use xlink:href="#SVGID_1_"  style="overflow:visible;"/>
				</clipPath>
				<path class="st4" d="M130.2,403.5H42.1c-17.9,0-32.5-14.6-32.5-32.5V40.7c0-17.9,14.6-32.5,32.5-32.5h88.1
					c17.9,0,32.5,14.6,32.5,32.5V371C162.7,388.9,148.1,403.5,130.2,403.5z M42.1,26c-8.1,0-14.7,6.6-14.7,14.7V371
					c0,8.1,6.6,14.7,14.7,14.7h88.1c8.1,0,14.7-6.6,14.7-14.7V40.7c0-8.1-6.6-14.7-14.7-14.7H42.1z"/>
				
					<rect x="-138.9" y="142.5" transform="matrix(0.2632 0.9647 -0.9647 0.2632 258.2149 65.6811)" class="st5" width="450.1" height="118.7"/>
				
					<rect x="-138.9" y="152.3" transform="matrix(0.2632 0.9647 -0.9647 0.2632 258.2149 65.6811)" class="st6" width="450.1" height="99.1"/>
			</g>
			<path class="st7" d="M130.2,403.5H42.1c-17.9,0-32.5-14.6-32.5-32.5V40.7c0-17.9,14.6-32.5,32.5-32.5h88.1
				c17.9,0,32.5,14.6,32.5,32.5V371C162.7,388.9,148.1,403.5,130.2,403.5z M42.1,26c-8.1,0-14.7,6.6-14.7,14.7V371
				c0,8.1,6.6,14.7,14.7,14.7h88.1c8.1,0,14.7-6.6,14.7-14.7V40.7c0-8.1-6.6-14.7-14.7-14.7H42.1z"/>
			<g>
				<path class="st8" d="M129.9,394.6H42.3c-13.2,0-23.8-10.7-23.8-23.8V40.9c0-13.2,10.7-23.8,23.8-23.8h87.6
					c13.2,0,23.8,10.7,23.8,23.8v329.8C153.8,383.9,143.1,394.6,129.9,394.6z"/>
				<path class="st1" d="M100.6,17.1H42.1c-13,0-23.6,10.6-23.6,23.6V371c0,13,10.6,23.6,23.6,23.6h58.6V17.1z"/>
				<path class="st2" d="M88.7,17.1H42.1c-13,0-23.6,10.6-23.6,23.6V371c0,13,10.6,23.6,23.6,23.6h46.7V17.1z"/>
				<path class="st9" d="M129.9,394.6H42.3c-13.2,0-23.8-10.7-23.8-23.8V40.9c0-13.2,10.7-23.8,23.8-23.8h87.6
					c13.2,0,23.8,10.7,23.8,23.8v329.8C153.8,383.9,143.1,394.6,129.9,394.6z"/>
			</g>
		</g>
		<g>
			<g>
				<path class="st0" d="M143.3,270.4H28.9c-2.3,0-4.2-1.9-4.2-4.2l0,0c0-2.3,1.9-4.2,4.2-4.2h114.3c2.3,0,4.2,1.9,4.2,4.2l0,0
					C147.5,268.6,145.6,270.4,143.3,270.4z"/>
				<path class="st1" d="M143.3,268.6H64.7c-1.3,0-2.3-1-2.3-2.3l0,0c0-1.3,1-2.3,2.3-2.3h78.6c1.3,0,2.3,1,2.3,2.3l0,0
					C145.7,267.5,144.6,268.6,143.3,268.6z"/>
			</g>
			<g>
				<path class="st0" d="M143.3,149.7H28.9c-2.3,0-4.2-1.9-4.2-4.2l0,0c0-2.3,1.9-4.2,4.2-4.2h114.3c2.3,0,4.2,1.9,4.2,4.2l0,0
					C147.5,147.8,145.6,149.7,143.3,149.7z"/>
				<path class="st1" d="M143.3,147.8H64.7c-1.3,0-2.3-1-2.3-2.3v0c0-1.3,1-2.3,2.3-2.3h78.6c1.3,0,2.3,1,2.3,2.3v0
					C145.7,146.8,144.6,147.8,143.3,147.8z"/>
			</g>
		</g>
		<g>
			<g>
				<g>
					<path class="st10" d="M86.1,326.6H39.2c0-46.5,20.8-61.7,46.9-61.7s46.9,15.2,46.9,61.7H86.1z"/>
					<path class="st0" d="M116,303.9c0,8.5-2.8,16.4-7.6,22.8c12.3,0,24.6,0,24.6,0c0-46.5-20.8-61.7-46.9-61.7
						c-2.3,0-4.6,0.1-6.8,0.4C99.5,266.3,116,283.5,116,303.9z"/>
					<g>
						<defs>
							<path id="SVGID_3_" d="M86.1,326.6H39.2c0-46.5,20.8-61.7,46.9-61.7s46.9,15.2,46.9,61.7H86.1z"/>
						</defs>
						<clipPath id="SVGID_4_">
							<use xlink:href="#SVGID_3_"  style="overflow:visible;"/>
						</clipPath>
						
							<radialGradient id="SVGID_5_" cx="85.9401" cy="305.2743" r="52.6678" gradientTransform="matrix(1 0 0 0.7964 0 62.1457)" gradientUnits="userSpaceOnUse">
							<stop  offset="0.6223" style="stop-color:#209100;stop-opacity:0.8"/>
							<stop  offset="1" style="stop-color:#0D3500;stop-opacity:0.1"/>
						</radialGradient>
						<path class="st11" d="M86.1,326.6H39.2c0-46.5,20.8-61.7,46.9-61.7s46.9,15.2,46.9,61.7H86.1z"/>
					</g>
					<path class="st12" d="M86.1,326.6H39.2c0-46.5,20.8-61.7,46.9-61.7s46.9,15.2,46.9,61.7H86.1z"/>
				</g>
				<g>
					<circle class="st8" cx="86.1" cy="326.6" r="46.9"/>
					<circle class="st13" cx="86.1" cy="326.6" r="35.8"/>
					<circle class="st14" cx="86.1" cy="326.6" r="44.7"/>
					<circle class="st15" cx="86.1" cy="326.6" r="36.3"/>
					<circle class="st15" cx="86.1" cy="326.6" r="26.3"/>
					<circle class="st15" cx="86.1" cy="326.6" r="15.4"/>
					<circle class="st15" cx="86.1" cy="326.6" r="6.2"/>
					<g>
						<defs>
							<path id="SVGID_6_" d="M122.3,329.8c-1.7,0-3.1-1.4-3.1-3.1s1.4-3.1,3.1-3.1c1.7,0,3.1,1.4,3.1,3.1S124.1,329.8,122.3,329.8z
								 M85.9,287.3c-1.7,0-3.1,1.4-3.1,3.1c0,1.7,1.4,3.1,3.1,3.1c1.7,0,3.1-1.4,3.1-3.1C89.1,288.7,87.7,287.3,85.9,287.3z
								 M85.9,297.2c-1.7,0-3.1,1.4-3.1,3.1c0,1.7,1.4,3.1,3.1,3.1c1.7,0,3.1-1.4,3.1-3.1C89.1,298.6,87.7,297.2,85.9,297.2z
								 M86.1,308c-1.7,0-3.1,1.4-3.1,3.1c0,1.7,1.4,3.1,3.1,3.1c1.7,0,3.1-1.4,3.1-3.1C89.2,309.4,87.8,308,86.1,308z M86.1,317.2
								c-1.7,0-3.1,1.4-3.1,3.1c0,1.7,1.4,3.1,3.1,3.1c1.7,0,3.1-1.4,3.1-3.1C89.2,318.6,87.8,317.2,86.1,317.2z M95.5,326.6
								c0-1.7-1.4-3.1-3.1-3.1s-3.1,1.4-3.1,3.1s1.4,3.1,3.1,3.1S95.5,328.4,95.5,326.6z M86.1,336c1.7,0,3.1-1.4,3.1-3.1
								s-1.4-3.1-3.1-3.1s-3.1,1.4-3.1,3.1S84.4,336,86.1,336z M76.7,326.6c0,1.7,1.4,3.1,3.1,3.1c1.7,0,3.1-1.4,3.1-3.1
								c0-1.7-1.4-3.1-3.1-3.1C78.1,323.5,76.7,324.9,76.7,326.6z M99.3,313.5c-1.2-1.2-3.2-1.2-4.4,0c-1.2,1.2-1.2,3.2,0,4.4
								s3.2,1.2,4.4,0S100.5,314.7,99.3,313.5z M104.7,326.6c0-1.7-1.4-3.1-3.1-3.1c-1.7,0-3.1,1.4-3.1,3.1s1.4,3.1,3.1,3.1
								C103.3,329.8,104.7,328.4,104.7,326.6z M99.3,339.8c1.2-1.2,1.2-3.2,0-4.4c-1.2-1.2-3.2-1.2-4.4,0c-1.2,1.2-1.2,3.2,0,4.4
								S98,341,99.3,339.8z M86.1,345.2c1.7,0,3.1-1.4,3.1-3.1c0-1.7-1.4-3.1-3.1-3.1s-3.1,1.4-3.1,3.1
								C83,343.8,84.4,345.2,86.1,345.2z M72.9,339.8c1.2,1.2,3.2,1.2,4.4,0s1.2-3.2,0-4.4s-3.2-1.2-4.4,0S71.7,338.6,72.9,339.8z
								 M67.5,326.6c0,1.7,1.4,3.1,3.1,3.1s3.1-1.4,3.1-3.1c0-1.7-1.4-3.1-3.1-3.1S67.5,324.9,67.5,326.6z M72.9,313.5
								c-1.2,1.2-1.2,3.2,0,4.4s3.2,1.2,4.4,0s1.2-3.2,0-4.4S74.2,312.2,72.9,313.5z M106.9,305.8c-1.2-1.2-3.2-1.2-4.4,0
								s-1.2,3.2,0,4.4c1.2,1.2,3.2,1.2,4.4,0C108.2,309,108.2,307,106.9,305.8z M115.6,326.6c0-1.7-1.4-3.1-3.1-3.1
								s-3.1,1.4-3.1,3.1s1.4,3.1,3.1,3.1S115.6,328.4,115.6,326.6z M106.9,347.5c1.2-1.2,1.2-3.2,0-4.4s-3.2-1.2-4.4,0
								s-1.2,3.2,0,4.4C103.7,348.7,105.7,348.7,106.9,347.5z M86.1,356.1c1.7,0,3.1-1.4,3.1-3.1c0-1.7-1.4-3.1-3.1-3.1
								s-3.1,1.4-3.1,3.1C83,354.7,84.4,356.1,86.1,356.1z M65.3,347.5c1.2,1.2,3.2,1.2,4.4,0s1.2-3.2,0-4.4c-1.2-1.2-3.2-1.2-4.4,0
								C64.1,344.2,64.1,346.2,65.3,347.5z M56.7,326.6c0,1.7,1.4,3.1,3.1,3.1c1.7,0,3.1-1.4,3.1-3.1c0-1.7-1.4-3.1-3.1-3.1
								C58.1,323.5,56.7,324.9,56.7,326.6z M65.1,305.8c-1.2,1.2-1.2,3.2,0,4.4c1.2,1.2,3.2,1.2,4.4,0c1.2-1.2,1.2-3.2,0-4.4
								S66.3,304.6,65.1,305.8z M74.7,299.4c-1.6,0.7-2.4,2.5-1.7,4.1c0.7,1.6,2.5,2.4,4.1,1.7c1.6-0.7,2.4-2.5,1.7-4.1
								S76.3,298.8,74.7,299.4z M113.3,315.4c-0.7-1.6-2.5-2.4-4.1-1.7c-1.6,0.7-2.4,2.5-1.7,4.1c0.7,1.6,2.5,2.4,4.1,1.7
								C113.2,318.8,114,317,113.3,315.4z M97.4,353.8c1.6-0.7,2.4-2.5,1.7-4.1c-0.7-1.6-2.5-2.4-4.1-1.7s-2.4,2.5-1.7,4.1
								C93.9,353.7,95.8,354.5,97.4,353.8z M58.9,337.9c0.7,1.6,2.5,2.4,4.1,1.7c1.6-0.7,2.4-2.5,1.7-4.1c-0.7-1.6-2.5-2.4-4.1-1.7
								C59,334.5,58.2,336.3,58.9,337.9z M97.4,299.4c-1.6-0.7-3.4,0.1-4.1,1.7s0.1,3.4,1.7,4.1c1.6,0.7,3.4-0.1,4.1-1.7
								C99.7,301.9,99,300.1,97.4,299.4z M113.3,337.9c0.7-1.6-0.1-3.4-1.7-4.1c-1.6-0.7-3.4,0.1-4.1,1.7c-0.7,1.6,0.1,3.4,1.7,4.1
								C110.8,340.3,112.7,339.5,113.3,337.9z M74.8,353.8c1.6,0.7,3.4-0.1,4.1-1.7c0.7-1.6-0.1-3.4-1.7-4.1s-3.4,0.1-4.1,1.7
								S73.2,353.2,74.8,353.8z M58.9,315.4c-0.7,1.6,0.1,3.4,1.7,4.1c1.6,0.7,3.4-0.1,4.1-1.7c0.7-1.6-0.1-3.4-1.7-4.1
								C61.4,313,59.6,313.8,58.9,315.4z M113.9,298.8c-1.2-1.2-3.2-1.2-4.4,0s-1.2,3.2,0,4.4c1.2,1.2,3.2,1.2,4.4,0
								C115.2,302,115.2,300,113.9,298.8z M113.9,354.5c1.2-1.2,1.2-3.2,0-4.4s-3.2-1.2-4.4,0s-1.2,3.2,0,4.4
								C110.7,355.7,112.7,355.7,113.9,354.5z M85.9,366c1.7,0,3.1-1.4,3.1-3.1s-1.4-3.1-3.1-3.1c-1.7,0-3.1,1.4-3.1,3.1
								S84.2,366,85.9,366z M58.1,354.5c1.2,1.2,3.2,1.2,4.4,0c1.2-1.2,1.2-3.2,0-4.4s-3.2-1.2-4.4,0S56.9,353.2,58.1,354.5z
								 M46.6,326.6c0,1.7,1.4,3.1,3.1,3.1s3.1-1.4,3.1-3.1c0-1.7-1.4-3.1-3.1-3.1S46.6,324.9,46.6,326.6z M58.1,298.8
								c-1.2,1.2-1.2,3.2,0,4.4c1.2,1.2,3.2,1.2,4.4,0c1.2-1.2,1.2-3.2,0-4.4S59.3,297.6,58.1,298.8z M70.9,290.3
								c-1.6,0.7-2.4,2.5-1.7,4.1c0.7,1.6,2.5,2.4,4.1,1.7c1.6-0.7,2.4-2.5,1.7-4.1C74.3,290.4,72.5,289.6,70.9,290.3z M101,290.3
								c-1.6-0.7-3.4,0.1-4.1,1.7c-0.7,1.6,0.1,3.4,1.7,4.1c1.6,0.7,3.4-0.1,4.1-1.7S102.6,290.9,101,290.3z M122.3,311.6
								c-0.7-1.6-2.5-2.4-4.1-1.7c-1.6,0.7-2.4,2.5-1.7,4.1c0.7,1.6,2.5,2.4,4.1,1.7C122.2,315,123,313.2,122.3,311.6z M122.3,341.7
								c0.7-1.6-0.1-3.4-1.7-4.1c-1.6-0.7-3.4,0.1-4.1,1.7c-0.7,1.6,0.1,3.4,1.7,4.1C119.8,344,121.6,343.3,122.3,341.7z M101,363
								c1.6-0.7,2.4-2.5,1.7-4.1c-0.7-1.6-2.5-2.4-4.1-1.7s-2.4,2.5-1.7,4.1S99.4,363.6,101,363z M70.9,363c1.6,0.7,3.4-0.1,4.1-1.7
								s-0.1-3.4-1.7-4.1s-3.4,0.1-4.1,1.7C68.5,360.5,69.3,362.3,70.9,363z M49.6,341.7c0.7,1.6,2.5,2.4,4.1,1.7
								c1.6-0.7,2.4-2.5,1.7-4.1c-0.7-1.6-2.5-2.4-4.1-1.7C49.7,338.3,48.9,340.1,49.6,341.7z M49.6,311.6c-0.7,1.6,0.1,3.4,1.7,4.1
								c1.6,0.7,3.4-0.1,4.1-1.7c0.7-1.6-0.1-3.4-1.7-4.1S50.2,310,49.6,311.6z"/>
						</defs>
						<clipPath id="SVGID_7_">
							<use xlink:href="#SVGID_6_"  style="overflow:visible;"/>
						</clipPath>
						<radialGradient id="SVGID_8_" cx="86.0242" cy="326.6294" r="83.0856" gradientUnits="userSpaceOnUse">
							<stop  offset="0" style="stop-color:#FFFFFF"/>
							<stop  offset="0.2999" style="stop-color:#C2E7B3"/>
							<stop  offset="0.6397" style="stop-color:#82CD62"/>
							<stop  offset="0.8815" style="stop-color:#5ABD30"/>
							<stop  offset="1" style="stop-color:#4AB71C"/>
						</radialGradient>
						<path class="st16" d="M122.3,329.8c-1.7,0-3.1-1.4-3.1-3.1s1.4-3.1,3.1-3.1c1.7,0,3.1,1.4,3.1,3.1S124.1,329.8,122.3,329.8z
							 M85.9,287.3c-1.7,0-3.1,1.4-3.1,3.1c0,1.7,1.4,3.1,3.1,3.1c1.7,0,3.1-1.4,3.1-3.1C89.1,288.7,87.7,287.3,85.9,287.3z
							 M85.9,297.2c-1.7,0-3.1,1.4-3.1,3.1c0,1.7,1.4,3.1,3.1,3.1c1.7,0,3.1-1.4,3.1-3.1C89.1,298.6,87.7,297.2,85.9,297.2z
							 M86.1,308c-1.7,0-3.1,1.4-3.1,3.1c0,1.7,1.4,3.1,3.1,3.1c1.7,0,3.1-1.4,3.1-3.1C89.2,309.4,87.8,308,86.1,308z M86.1,317.2
							c-1.7,0-3.1,1.4-3.1,3.1c0,1.7,1.4,3.1,3.1,3.1c1.7,0,3.1-1.4,3.1-3.1C89.2,318.6,87.8,317.2,86.1,317.2z M95.5,326.6
							c0-1.7-1.4-3.1-3.1-3.1s-3.1,1.4-3.1,3.1s1.4,3.1,3.1,3.1S95.5,328.4,95.5,326.6z M86.1,336c1.7,0,3.1-1.4,3.1-3.1
							s-1.4-3.1-3.1-3.1s-3.1,1.4-3.1,3.1S84.4,336,86.1,336z M76.7,326.6c0,1.7,1.4,3.1,3.1,3.1c1.7,0,3.1-1.4,3.1-3.1
							c0-1.7-1.4-3.1-3.1-3.1C78.1,323.5,76.7,324.9,76.7,326.6z M99.3,313.5c-1.2-1.2-3.2-1.2-4.4,0c-1.2,1.2-1.2,3.2,0,4.4
							s3.2,1.2,4.4,0S100.5,314.7,99.3,313.5z M104.7,326.6c0-1.7-1.4-3.1-3.1-3.1c-1.7,0-3.1,1.4-3.1,3.1s1.4,3.1,3.1,3.1
							C103.3,329.8,104.7,328.4,104.7,326.6z M99.3,339.8c1.2-1.2,1.2-3.2,0-4.4c-1.2-1.2-3.2-1.2-4.4,0c-1.2,1.2-1.2,3.2,0,4.4
							S98,341,99.3,339.8z M86.1,345.2c1.7,0,3.1-1.4,3.1-3.1c0-1.7-1.4-3.1-3.1-3.1s-3.1,1.4-3.1,3.1
							C83,343.8,84.4,345.2,86.1,345.2z M72.9,339.8c1.2,1.2,3.2,1.2,4.4,0s1.2-3.2,0-4.4s-3.2-1.2-4.4,0S71.7,338.6,72.9,339.8z
							 M67.5,326.6c0,1.7,1.4,3.1,3.1,3.1s3.1-1.4,3.1-3.1c0-1.7-1.4-3.1-3.1-3.1S67.5,324.9,67.5,326.6z M72.9,313.5
							c-1.2,1.2-1.2,3.2,0,4.4s3.2,1.2,4.4,0s1.2-3.2,0-4.4S74.2,312.2,72.9,313.5z M106.9,305.8c-1.2-1.2-3.2-1.2-4.4,0
							s-1.2,3.2,0,4.4c1.2,1.2,3.2,1.2,4.4,0C108.2,309,108.2,307,106.9,305.8z M115.6,326.6c0-1.7-1.4-3.1-3.1-3.1
							s-3.1,1.4-3.1,3.1s1.4,3.1,3.1,3.1S115.6,328.4,115.6,326.6z M106.9,347.5c1.2-1.2,1.2-3.2,0-4.4s-3.2-1.2-4.4,0
							s-1.2,3.2,0,4.4C103.7,348.7,105.7,348.7,106.9,347.5z M86.1,356.1c1.7,0,3.1-1.4,3.1-3.1c0-1.7-1.4-3.1-3.1-3.1
							s-3.1,1.4-3.1,3.1C83,354.7,84.4,356.1,86.1,356.1z M65.3,347.5c1.2,1.2,3.2,1.2,4.4,0s1.2-3.2,0-4.4c-1.2-1.2-3.2-1.2-4.4,0
							C64.1,344.2,64.1,346.2,65.3,347.5z M56.7,326.6c0,1.7,1.4,3.1,3.1,3.1c1.7,0,3.1-1.4,3.1-3.1c0-1.7-1.4-3.1-3.1-3.1
							C58.1,323.5,56.7,324.9,56.7,326.6z M65.1,305.8c-1.2,1.2-1.2,3.2,0,4.4c1.2,1.2,3.2,1.2,4.4,0c1.2-1.2,1.2-3.2,0-4.4
							S66.3,304.6,65.1,305.8z M74.7,299.4c-1.6,0.7-2.4,2.5-1.7,4.1c0.7,1.6,2.5,2.4,4.1,1.7c1.6-0.7,2.4-2.5,1.7-4.1
							S76.3,298.8,74.7,299.4z M113.3,315.4c-0.7-1.6-2.5-2.4-4.1-1.7c-1.6,0.7-2.4,2.5-1.7,4.1c0.7,1.6,2.5,2.4,4.1,1.7
							C113.2,318.8,114,317,113.3,315.4z M97.4,353.8c1.6-0.7,2.4-2.5,1.7-4.1c-0.7-1.6-2.5-2.4-4.1-1.7s-2.4,2.5-1.7,4.1
							C93.9,353.7,95.8,354.5,97.4,353.8z M58.9,337.9c0.7,1.6,2.5,2.4,4.1,1.7c1.6-0.7,2.4-2.5,1.7-4.1c-0.7-1.6-2.5-2.4-4.1-1.7
							C59,334.5,58.2,336.3,58.9,337.9z M97.4,299.4c-1.6-0.7-3.4,0.1-4.1,1.7s0.1,3.4,1.7,4.1c1.6,0.7,3.4-0.1,4.1-1.7
							C99.7,301.9,99,300.1,97.4,299.4z M113.3,337.9c0.7-1.6-0.1-3.4-1.7-4.1c-1.6-0.7-3.4,0.1-4.1,1.7c-0.7,1.6,0.1,3.4,1.7,4.1
							C110.8,340.3,112.7,339.5,113.3,337.9z M74.8,353.8c1.6,0.7,3.4-0.1,4.1-1.7c0.7-1.6-0.1-3.4-1.7-4.1s-3.4,0.1-4.1,1.7
							S73.2,353.2,74.8,353.8z M58.9,315.4c-0.7,1.6,0.1,3.4,1.7,4.1c1.6,0.7,3.4-0.1,4.1-1.7c0.7-1.6-0.1-3.4-1.7-4.1
							C61.4,313,59.6,313.8,58.9,315.4z M113.9,298.8c-1.2-1.2-3.2-1.2-4.4,0s-1.2,3.2,0,4.4c1.2,1.2,3.2,1.2,4.4,0
							C115.2,302,115.2,300,113.9,298.8z M113.9,354.5c1.2-1.2,1.2-3.2,0-4.4s-3.2-1.2-4.4,0s-1.2,3.2,0,4.4
							C110.7,355.7,112.7,355.7,113.9,354.5z M85.9,366c1.7,0,3.1-1.4,3.1-3.1s-1.4-3.1-3.1-3.1c-1.7,0-3.1,1.4-3.1,3.1
							S84.2,366,85.9,366z M58.1,354.5c1.2,1.2,3.2,1.2,4.4,0c1.2-1.2,1.2-3.2,0-4.4s-3.2-1.2-4.4,0S56.9,353.2,58.1,354.5z
							 M46.6,326.6c0,1.7,1.4,3.1,3.1,3.1s3.1-1.4,3.1-3.1c0-1.7-1.4-3.1-3.1-3.1S46.6,324.9,46.6,326.6z M58.1,298.8
							c-1.2,1.2-1.2,3.2,0,4.4c1.2,1.2,3.2,1.2,4.4,0c1.2-1.2,1.2-3.2,0-4.4S59.3,297.6,58.1,298.8z M70.9,290.3
							c-1.6,0.7-2.4,2.5-1.7,4.1c0.7,1.6,2.5,2.4,4.1,1.7c1.6-0.7,2.4-2.5,1.7-4.1C74.3,290.4,72.5,289.6,70.9,290.3z M101,290.3
							c-1.6-0.7-3.4,0.1-4.1,1.7c-0.7,1.6,0.1,3.4,1.7,4.1c1.6,0.7,3.4-0.1,4.1-1.7S102.6,290.9,101,290.3z M122.3,311.6
							c-0.7-1.6-2.5-2.4-4.1-1.7c-1.6,0.7-2.4,2.5-1.7,4.1c0.7,1.6,2.5,2.4,4.1,1.7C122.2,315,123,313.2,122.3,311.6z M122.3,341.7
							c0.7-1.6-0.1-3.4-1.7-4.1c-1.6-0.7-3.4,0.1-4.1,1.7c-0.7,1.6,0.1,3.4,1.7,4.1C119.8,344,121.6,343.3,122.3,341.7z M101,363
							c1.6-0.7,2.4-2.5,1.7-4.1c-0.7-1.6-2.5-2.4-4.1-1.7s-2.4,2.5-1.7,4.1S99.4,363.6,101,363z M70.9,363c1.6,0.7,3.4-0.1,4.1-1.7
							s-0.1-3.4-1.7-4.1s-3.4,0.1-4.1,1.7C68.5,360.5,69.3,362.3,70.9,363z M49.6,341.7c0.7,1.6,2.5,2.4,4.1,1.7
							c1.6-0.7,2.4-2.5,1.7-4.1c-0.7-1.6-2.5-2.4-4.1-1.7C49.7,338.3,48.9,340.1,49.6,341.7z M49.6,311.6c-0.7,1.6,0.1,3.4,1.7,4.1
							c1.6,0.7,3.4-0.1,4.1-1.7c0.7-1.6-0.1-3.4-1.7-4.1S50.2,310,49.6,311.6z"/>
					</g>
					<g>
						<circle class="st17" cx="122.3" cy="326.6" r="3.1"/>
						<circle class="st17" cx="85.9" cy="290.4" r="3.1"/>
						<circle class="st17" cx="85.9" cy="300.3" r="3.1"/>
						<circle class="st17" cx="86.1" cy="311.2" r="3.1"/>
						<circle class="st17" cx="86.1" cy="320.4" r="3.1"/>
						<circle class="st17" cx="92.4" cy="326.6" r="3.1"/>
						<circle class="st17" cx="86.1" cy="332.9" r="3.1"/>
						<circle class="st17" cx="79.8" cy="326.6" r="3.1"/>
						
							<ellipse transform="matrix(0.7071 -0.7071 0.7071 0.7071 -194.7994 161.0862)" class="st17" cx="97" cy="315.7" rx="3.1" ry="3.1"/>
						<circle class="st17" cx="101.6" cy="326.6" r="3.1"/>
						
							<ellipse transform="matrix(0.7071 -0.7071 0.7071 0.7071 -210.2736 167.4961)" class="st17" cx="97" cy="337.6" rx="3.1" ry="3.1"/>
						<circle class="st17" cx="86.1" cy="342.1" r="3.1"/>
						
							<ellipse transform="matrix(0.7071 -0.7071 0.7071 0.7071 -216.6835 152.0219)" class="st17" cx="75.2" cy="337.6" rx="3.1" ry="3.1"/>
						<circle class="st17" cx="70.6" cy="326.6" r="3.1"/>
						
							<ellipse transform="matrix(0.7071 -0.7071 0.7071 0.7071 -201.2093 145.612)" class="st17" cx="75.2" cy="315.7" rx="3.1" ry="3.1"/>
						
							<ellipse transform="matrix(0.7071 -0.7071 0.7071 0.7071 -187.1323 164.262)" class="st17" cx="104.7" cy="308" rx="3.1" ry="3.1"/>
						<circle class="st17" cx="112.4" cy="326.6" r="3.1"/>
						
							<ellipse transform="matrix(0.7071 -0.7071 0.7071 0.7071 -213.4494 175.1632)" class="st17" cx="104.7" cy="345.2" rx="3.1" ry="3.1"/>
						<circle class="st17" cx="86.1" cy="352.9" r="3.1"/>
						
							<ellipse transform="matrix(0.7071 -0.7071 0.7071 0.7071 -224.3506 148.8461)" class="st17" cx="67.5" cy="345.2" rx="3.1" ry="3.1"/>
						<circle class="st17" cx="59.8" cy="326.6" r="3.1"/>
						
							<ellipse transform="matrix(0.7071 -0.7071 0.7071 0.7071 -198.0822 137.8284)" class="st17" cx="67.3" cy="308" rx="3.1" ry="3.1"/>
						
							<ellipse transform="matrix(0.9239 -0.3827 0.3827 0.9239 -109.9159 52.0467)" class="st17" cx="75.9" cy="302.3" rx="3.1" ry="3.1"/>
						
							<ellipse transform="matrix(0.9239 -0.3827 0.3827 0.9239 -112.7361 66.3526)" class="st17" cx="110.4" cy="316.6" rx="3.1" ry="3.1"/>
						
							<ellipse transform="matrix(0.9239 -0.3827 0.3827 0.9239 -126.9789 63.5197)" class="st17" cx="96.2" cy="350.9" rx="3.1" ry="3.1"/>
						
							<ellipse transform="matrix(0.9239 -0.3827 0.3827 0.9239 -124.1459 49.2769)" class="st17" cx="61.8" cy="336.7" rx="3.1" ry="3.1"/>
						
							<ellipse transform="matrix(0.3827 -0.9239 0.9239 0.3827 -219.9305 275.4806)" class="st17" cx="96.2" cy="302.3" rx="3.1" ry="3.1"/>
						
							<ellipse transform="matrix(0.3827 -0.9239 0.9239 0.3827 -242.9056 309.8658)" class="st17" cx="110.4" cy="336.7" rx="3.1" ry="3.1"/>
						
							<ellipse transform="matrix(0.3827 -0.9239 0.9239 0.3827 -277.2908 286.8908)" class="st17" cx="76" cy="350.9" rx="3.1" ry="3.1"/>
						
							<ellipse transform="matrix(0.3827 -0.9239 0.9239 0.3827 -254.3162 252.5058)" class="st17" cx="61.8" cy="316.6" rx="3.1" ry="3.1"/>
						
							<ellipse transform="matrix(0.7071 -0.7071 0.7071 0.7071 -180.1321 167.1616)" class="st17" cx="111.7" cy="301" rx="3.1" ry="3.1"/>
						
							<ellipse transform="matrix(0.7071 -0.7071 0.7071 0.7071 -216.349 182.1634)" class="st17" cx="111.7" cy="352.2" rx="3.1" ry="3.1"/>
						<circle class="st17" cx="85.9" cy="362.8" r="3.1"/>
						
							<ellipse transform="matrix(0.7071 -0.7071 0.7071 0.7071 -231.3995 145.83)" class="st17" cx="60.3" cy="352.2" rx="3.1" ry="3.1"/>
						<circle class="st17" cx="49.7" cy="326.6" r="3.1"/>
						
							<ellipse transform="matrix(0.7071 -0.7071 0.7071 0.7071 -195.1826 130.8282)" class="st17" cx="60.3" cy="301" rx="3.1" ry="3.1"/>
						
							<ellipse transform="matrix(0.9239 -0.3827 0.3827 0.9239 -106.7041 49.9007)" class="st17" cx="72.1" cy="293.2" rx="3.1" ry="3.1"/>
						
							<ellipse transform="matrix(0.3827 -0.9239 0.9239 0.3827 -209.2441 273.1824)" class="st17" cx="99.8" cy="293.2" rx="3.1" ry="3.1"/>
						
							<ellipse transform="matrix(0.9239 -0.3827 0.3827 0.9239 -110.6028 69.5013)" class="st17" cx="119.4" cy="312.8" rx="3.1" ry="3.1"/>
						
							<ellipse transform="matrix(0.3827 -0.9239 0.9239 0.3827 -240.8618 320.5025)" class="st17" cx="119.4" cy="340.5" rx="3.1" ry="3.1"/>
						
							<ellipse transform="matrix(0.9239 -0.3827 0.3827 0.9239 -130.2033 65.6026)" class="st17" cx="99.8" cy="360.1" rx="3.1" ry="3.1"/>
						
							<ellipse transform="matrix(0.3827 -0.9239 0.9239 0.3827 -288.1819 288.8847)" class="st17" cx="72.1" cy="360.1" rx="3.1" ry="3.1"/>
						
							<ellipse transform="matrix(0.9239 -0.3827 0.3827 0.9239 -126.3047 46.0021)" class="st17" cx="52.5" cy="340.5" rx="3.1" ry="3.1"/>
						
							<ellipse transform="matrix(0.3827 -0.9239 0.9239 0.3827 -256.5641 241.5647)" class="st17" cx="52.5" cy="312.8" rx="3.1" ry="3.1"/>
					</g>
					<radialGradient id="SVGID_9_" cx="86.1067" cy="326.6289" r="46.8592" gradientUnits="userSpaceOnUse">
						<stop  offset="0" style="stop-color:#4AB71C"/>
						<stop  offset="0.2734" style="stop-color:#47B41B"/>
						<stop  offset="0.4958" style="stop-color:#40AA17"/>
						<stop  offset="0.7003" style="stop-color:#329910"/>
						<stop  offset="0.8929" style="stop-color:#208107"/>
						<stop  offset="1" style="stop-color:#137000"/>
					</radialGradient>
					<circle class="st18" cx="86.1" cy="326.6" r="46.9"/>
					<radialGradient id="SVGID_10_" cx="86.1067" cy="326.6289" r="46.8592" gradientUnits="userSpaceOnUse">
						<stop  offset="0" style="stop-color:#4AB71C;stop-opacity:0"/>
						<stop  offset="0.3826" style="stop-color:#49B51C;stop-opacity:0.3826"/>
						<stop  offset="0.5336" style="stop-color:#47AE1C;stop-opacity:0.5336"/>
						<stop  offset="0.6437" style="stop-color:#43A21C;stop-opacity:0.6437"/>
						<stop  offset="0.734" style="stop-color:#3E911B;stop-opacity:0.734"/>
						<stop  offset="0.812" style="stop-color:#377A1B;stop-opacity:0.812"/>
						<stop  offset="0.8816" style="stop-color:#2E5E1A;stop-opacity:0.8816"/>
						<stop  offset="0.9435" style="stop-color:#243E1A;stop-opacity:0.9435"/>
						<stop  offset="1" style="stop-color:#191919"/>
					</radialGradient>
					<circle class="st19" cx="86.1" cy="326.6" r="46.9"/>
					<radialGradient id="SVGID_11_" cx="86.1067" cy="326.6289" r="46.8592" gradientUnits="userSpaceOnUse">
						<stop  offset="0" style="stop-color:#4AB71C"/>
						<stop  offset="0.2734" style="stop-color:#47B41B"/>
						<stop  offset="0.4958" style="stop-color:#40AA17"/>
						<stop  offset="0.7003" style="stop-color:#329910"/>
						<stop  offset="0.8929" style="stop-color:#208107"/>
						<stop  offset="1" style="stop-color:#137000"/>
					</radialGradient>
					<circle class="st20" cx="86.1" cy="326.6" r="46.9"/>
					<circle class="st12" cx="86.1" cy="326.6" r="46.9"/>
					<ellipse class="st21" cx="85.9" cy="348.6" rx="30.8" ry="18.5"/>
				</g>
			</g>
			<radialGradient id="SVGID_12_" cx="86.6217" cy="326.4573" r="62.3194" gradientUnits="userSpaceOnUse">
				<stop  offset="0.7278" style="stop-color:#4AB71C;stop-opacity:0"/>
				<stop  offset="0.8101" style="stop-color:#4AB71C;stop-opacity:0.2"/>
				<stop  offset="1" style="stop-color:#4AB71C;stop-opacity:0"/>
			</radialGradient>
			<circle class="st22" cx="86.1" cy="326.6" r="62.9"/>
		</g>
		<g>
			<g>
				<path class="st10" d="M86.1,205.9H39.2c0-46.5,20.8-61.7,46.9-61.7s46.9,15.2,46.9,61.7H86.1z"/>
				<path class="st0" d="M116,183.1c0,8.5-2.8,16.4-7.6,22.8c12.3,0,24.6,0,24.6,0c0-46.5-20.8-61.7-46.9-61.7
					c-2.3,0-4.6,0.1-6.8,0.4C99.5,145.5,116,162.7,116,183.1z"/>
				<path class="st23" d="M86.1,205.9H39.2c0-46.5,20.8-61.7,46.9-61.7s46.9,15.2,46.9,61.7H86.1z"/>
			</g>
			<g>
				<circle class="st8" cx="86.1" cy="205.9" r="46.9"/>
				<circle class="st13" cx="86.1" cy="205.9" r="35.8"/>
				<circle class="st14" cx="86.1" cy="205.9" r="44.7"/>
				<circle class="st23" cx="86.1" cy="205.9" r="46.9"/>
				<circle class="st15" cx="86.1" cy="205.9" r="36.3"/>
				<circle class="st15" cx="86.1" cy="205.9" r="26.3"/>
				<circle class="st15" cx="86.1" cy="205.9" r="15.4"/>
				<circle class="st15" cx="86.1" cy="205.9" r="6.2"/>
				<g>
					<circle class="st24" cx="122.3" cy="205.9" r="3.1"/>
					<circle class="st24" cx="85.9" cy="169.6" r="3.1"/>
					<circle class="st24" cx="85.9" cy="179.5" r="3.1"/>
					<circle class="st24" cx="86.1" cy="190.4" r="3.1"/>
					<circle class="st24" cx="86.1" cy="199.6" r="3.1"/>
					<circle class="st24" cx="92.4" cy="205.9" r="3.1"/>
					<circle class="st24" cx="86.1" cy="212.1" r="3.1"/>
					<circle class="st24" cx="79.8" cy="205.9" r="3.1"/>
					
						<ellipse transform="matrix(0.7071 -0.7071 0.7071 0.7071 -109.3965 125.7111)" class="st24" cx="97" cy="194.9" rx="3.1" ry="3.1"/>
					<circle class="st24" cx="101.6" cy="205.9" r="3.1"/>
					
						<ellipse transform="matrix(0.7071 -0.7071 0.7071 0.7071 -124.8707 132.121)" class="st24" cx="97" cy="216.8" rx="3.1" ry="3.1"/>
					<circle class="st24" cx="86.1" cy="221.3" r="3.1"/>
					
						<ellipse transform="matrix(0.7071 -0.7071 0.7071 0.7071 -131.2806 116.6469)" class="st24" cx="75.2" cy="216.8" rx="3.1" ry="3.1"/>
					<circle class="st24" cx="70.6" cy="205.9" r="3.1"/>
					
						<ellipse transform="matrix(0.7071 -0.7071 0.7071 0.7071 -115.8064 110.237)" class="st24" cx="75.2" cy="194.9" rx="3.1" ry="3.1"/>
					
						<ellipse transform="matrix(0.7071 -0.7071 0.7071 0.7071 -101.7294 128.887)" class="st24" cx="104.7" cy="187.2" rx="3.1" ry="3.1"/>
					<circle class="st24" cx="112.4" cy="205.9" r="3.1"/>
					
						<ellipse transform="matrix(0.7071 -0.7071 0.7071 0.7071 -128.0465 139.7881)" class="st24" cx="104.7" cy="224.5" rx="3.1" ry="3.1"/>
					<circle class="st24" cx="86.1" cy="232.2" r="3.1"/>
					
						<ellipse transform="matrix(0.7071 -0.7071 0.7071 0.7071 -138.9477 113.4711)" class="st24" cx="67.5" cy="224.5" rx="3.1" ry="3.1"/>
					<circle class="st24" cx="59.8" cy="205.9" r="3.1"/>
					
						<ellipse transform="matrix(0.7071 -0.7071 0.7071 0.7071 -112.6793 102.4534)" class="st24" cx="67.3" cy="187.2" rx="3.1" ry="3.1"/>
					
						<ellipse transform="matrix(0.9239 -0.3827 0.3827 0.9239 -63.6962 42.8531)" class="st24" cx="75.9" cy="181.5" rx="3.1" ry="3.1"/>
					
						<ellipse transform="matrix(0.9239 -0.3827 0.3827 0.9239 -66.5163 57.159)" class="st24" cx="110.4" cy="195.8" rx="3.1" ry="3.1"/>
					
						<ellipse transform="matrix(0.9239 -0.3827 0.3827 0.9239 -80.7591 54.326)" class="st24" cx="96.2" cy="230.2" rx="3.1" ry="3.1"/>
					
						<ellipse transform="matrix(0.9239 -0.3827 0.3827 0.9239 -77.9262 40.0832)" class="st24" cx="61.8" cy="215.9" rx="3.1" ry="3.1"/>
					
						<ellipse transform="matrix(0.3827 -0.9239 0.9239 0.3827 -108.3462 200.9224)" class="st24" cx="96.2" cy="181.5" rx="3.1" ry="3.1"/>
					
						<ellipse transform="matrix(0.3827 -0.9239 0.9239 0.3827 -131.3213 235.3076)" class="st24" cx="110.4" cy="215.9" rx="3.1" ry="3.1"/>
					
						<ellipse transform="matrix(0.3827 -0.9239 0.9239 0.3827 -165.7065 212.3326)" class="st24" cx="76" cy="230.2" rx="3.1" ry="3.1"/>
					
						<ellipse transform="matrix(0.3827 -0.9239 0.9239 0.3827 -142.7319 177.9476)" class="st24" cx="61.8" cy="195.8" rx="3.1" ry="3.1"/>
					
						<ellipse transform="matrix(0.7071 -0.7071 0.7071 0.7071 -94.7292 131.7866)" class="st24" cx="111.7" cy="180.2" rx="3.1" ry="3.1"/>
					
						<ellipse transform="matrix(0.7071 -0.7071 0.7071 0.7071 -130.9461 146.7884)" class="st24" cx="111.7" cy="231.5" rx="3.1" ry="3.1"/>
					<circle class="st24" cx="85.9" cy="242.1" r="3.1"/>
					
						<ellipse transform="matrix(0.7071 -0.7071 0.7071 0.7071 -145.9966 110.4549)" class="st24" cx="60.3" cy="231.5" rx="3.1" ry="3.1"/>
					<circle class="st24" cx="49.7" cy="205.9" r="3.1"/>
					
						<ellipse transform="matrix(0.7071 -0.7071 0.7071 0.7071 -109.7797 95.4531)" class="st24" cx="60.3" cy="180.2" rx="3.1" ry="3.1"/>
					
						<ellipse transform="matrix(0.9239 -0.3827 0.3827 0.9239 -60.4844 40.7071)" class="st24" cx="72.1" cy="172.4" rx="3.1" ry="3.1"/>
					
						<ellipse transform="matrix(0.3827 -0.9239 0.9239 0.3827 -97.6598 198.6242)" class="st24" cx="99.8" cy="172.4" rx="3.1" ry="3.1"/>
					
						<ellipse transform="matrix(0.9239 -0.3827 0.3827 0.9239 -64.3831 60.3076)" class="st24" cx="119.4" cy="192" rx="3.1" ry="3.1"/>
					
						<ellipse transform="matrix(0.3827 -0.9239 0.9239 0.3827 -129.2776 245.9442)" class="st24" cx="119.4" cy="219.7" rx="3.1" ry="3.1"/>
					
						<ellipse transform="matrix(0.9239 -0.3827 0.3827 0.9239 -83.9836 56.4089)" class="st24" cx="99.8" cy="239.3" rx="3.1" ry="3.1"/>
					
						<ellipse transform="matrix(0.3827 -0.9239 0.9239 0.3827 -176.5976 214.3264)" class="st24" cx="72.1" cy="239.3" rx="3.1" ry="3.1"/>
					
						<ellipse transform="matrix(0.9239 -0.3827 0.3827 0.9239 -80.085 36.8084)" class="st24" cx="52.5" cy="219.7" rx="3.1" ry="3.1"/>
					
						<ellipse transform="matrix(0.3827 -0.9239 0.9239 0.3827 -144.9798 167.0064)" class="st24" cx="52.5" cy="192" rx="3.1" ry="3.1"/>
				</g>
				<ellipse class="st25" cx="85.9" cy="227.8" rx="30.8" ry="18.5"/>
			</g>
		</g>
		<g>
			<g>
				<path class="st10" d="M86.1,85.1H39.2c0-46.5,20.8-61.7,46.9-61.7S133,38.5,133,85.1H86.1z"/>
				<path class="st0" d="M116,62.3c0,8.5-2.8,16.4-7.6,22.8c12.3,0,24.6,0,24.6,0c0-46.5-20.8-61.7-46.9-61.7
					c-2.3,0-4.6,0.1-6.8,0.4C99.5,24.8,116,41.9,116,62.3z"/>
				<path class="st23" d="M86.1,85.1H39.2c0-46.5,20.8-61.7,46.9-61.7S133,38.5,133,85.1H86.1z"/>
			</g>
			<g>
				<circle class="st8" cx="86.1" cy="85.1" r="46.9"/>
				<circle class="st13" cx="86.1" cy="85.1" r="35.8"/>
				<circle class="st14" cx="86.1" cy="85.1" r="44.7"/>
				<circle class="st23" cx="86.1" cy="85.1" r="46.9"/>
				<circle class="st15" cx="86.1" cy="85.1" r="36.3"/>
				<circle class="st15" cx="86.1" cy="85.1" r="26.3"/>
				<circle class="st15" cx="86.1" cy="85.1" r="15.4"/>
				<circle class="st15" cx="86.1" cy="85.1" r="6.2"/>
				<g>
					<circle class="st24" cx="122.3" cy="85.1" r="3.1"/>
					<circle class="st24" cx="85.9" cy="48.9" r="3.1"/>
					<circle class="st24" cx="85.9" cy="58.8" r="3.1"/>
					<circle class="st24" cx="86.1" cy="69.6" r="3.1"/>
					<circle class="st24" cx="86.1" cy="78.8" r="3.1"/>
					<circle class="st24" cx="92.4" cy="85.1" r="3.1"/>
					<circle class="st24" cx="86.1" cy="91.3" r="3.1"/>
					<circle class="st24" cx="79.8" cy="85.1" r="3.1"/>
					
						<ellipse transform="matrix(0.7071 -0.7071 0.7071 0.7071 -23.9936 90.3361)" class="st24" cx="97" cy="74.1" rx="3.1" ry="3.1"/>
					<circle class="st24" cx="101.6" cy="85.1" r="3.1"/>
					<ellipse transform="matrix(0.7071 -0.7071 0.7071 0.7071 -39.4678 96.746)" class="st24" cx="97" cy="96" rx="3.1" ry="3.1"/>
					<circle class="st24" cx="86.1" cy="100.5" r="3.1"/>
					
						<ellipse transform="matrix(0.7071 -0.7071 0.7071 0.7071 -45.8776 81.2718)" class="st24" cx="75.2" cy="96" rx="3.1" ry="3.1"/>
					<circle class="st24" cx="70.6" cy="85.1" r="3.1"/>
					
						<ellipse transform="matrix(0.7071 -0.7071 0.7071 0.7071 -30.4035 74.8619)" class="st24" cx="75.2" cy="74.1" rx="3.1" ry="3.1"/>
					
						<ellipse transform="matrix(0.7071 -0.7071 0.7071 0.7071 -16.3265 93.5119)" class="st24" cx="104.7" cy="66.5" rx="3.1" ry="3.1"/>
					<circle class="st24" cx="112.4" cy="85.1" r="3.1"/>
					
						<ellipse transform="matrix(0.7071 -0.7071 0.7071 0.7071 -42.6436 104.4131)" class="st24" cx="104.7" cy="103.7" rx="3.1" ry="3.1"/>
					<circle class="st24" cx="86.1" cy="111.4" r="3.1"/>
					
						<ellipse transform="matrix(0.7071 -0.7071 0.7071 0.7071 -53.5447 78.096)" class="st24" cx="67.5" cy="103.7" rx="3.1" ry="3.1"/>
					<circle class="st24" cx="59.8" cy="85.1" r="3.1"/>
					
						<ellipse transform="matrix(0.7071 -0.7071 0.7071 0.7071 -27.2763 67.0783)" class="st24" cx="67.3" cy="66.5" rx="3.1" ry="3.1"/>
					
						<ellipse transform="matrix(0.9239 -0.3827 0.3827 0.9239 -17.4764 33.6594)" class="st24" cx="75.9" cy="60.8" rx="3.1" ry="3.1"/>
					
						<ellipse transform="matrix(0.9239 -0.3827 0.3827 0.9239 -20.2966 47.9653)" class="st24" cx="110.4" cy="75" rx="3.1" ry="3.1"/>
					
						<ellipse transform="matrix(0.9239 -0.3827 0.3827 0.9239 -34.5394 45.1323)" class="st24" cx="96.2" cy="109.4" rx="3.1" ry="3.1"/>
					
						<ellipse transform="matrix(0.9239 -0.3827 0.3827 0.9239 -31.7065 30.8896)" class="st24" cx="61.8" cy="95.1" rx="3.1" ry="3.1"/>
					
						<ellipse transform="matrix(0.3827 -0.9239 0.9239 0.3827 3.2381 126.3641)" class="st24" cx="96.2" cy="60.8" rx="3.1" ry="3.1"/>
					
						<ellipse transform="matrix(0.3827 -0.9239 0.9239 0.3827 -19.737 160.7494)" class="st24" cx="110.4" cy="95.1" rx="3.1" ry="3.1"/>
					
						<ellipse transform="matrix(0.3827 -0.9239 0.9239 0.3827 -54.1222 137.7743)" class="st24" cx="76" cy="109.4" rx="3.1" ry="3.1"/>
					
						<ellipse transform="matrix(0.3827 -0.9239 0.9239 0.3827 -31.1477 103.3894)" class="st24" cx="61.8" cy="75" rx="3.1" ry="3.1"/>
					
						<ellipse transform="matrix(0.7071 -0.7071 0.7071 0.7071 -9.3263 96.4115)" class="st24" cx="111.7" cy="59.5" rx="3.1" ry="3.1"/>
					
						<ellipse transform="matrix(0.7071 -0.7071 0.7071 0.7071 -45.5432 111.4133)" class="st24" cx="111.7" cy="110.7" rx="3.1" ry="3.1"/>
					<circle class="st24" cx="85.9" cy="121.3" r="3.1"/>
					
						<ellipse transform="matrix(0.7071 -0.7071 0.7071 0.7071 -60.5937 75.0799)" class="st24" cx="60.3" cy="110.7" rx="3.1" ry="3.1"/>
					<circle class="st24" cx="49.7" cy="85.1" r="3.1"/>
					
						<ellipse transform="matrix(0.7071 -0.7071 0.7071 0.7071 -24.3767 60.0781)" class="st24" cx="60.3" cy="59.5" rx="3.1" ry="3.1"/>
					
						<ellipse transform="matrix(0.9239 -0.3827 0.3827 0.9239 -14.2647 31.5134)" class="st24" cx="72.1" cy="51.6" rx="3.1" ry="3.1"/>
					
						<ellipse transform="matrix(0.3827 -0.9239 0.9239 0.3827 13.9245 124.066)" class="st24" cx="99.8" cy="51.6" rx="3.1" ry="3.1"/>
					
						<ellipse transform="matrix(0.9239 -0.3827 0.3827 0.9239 -18.1633 51.1139)" class="st24" cx="119.4" cy="71.2" rx="3.1" ry="3.1"/>
					
						<ellipse transform="matrix(0.3827 -0.9239 0.9239 0.3827 -17.6933 171.386)" class="st24" cx="119.4" cy="98.9" rx="3.1" ry="3.1"/>
					
						<ellipse transform="matrix(0.9239 -0.3827 0.3827 0.9239 -37.7639 47.2153)" class="st24" cx="99.8" cy="118.5" rx="3.1" ry="3.1"/>
					
						<ellipse transform="matrix(0.3827 -0.9239 0.9239 0.3827 -65.0133 139.7682)" class="st24" cx="72.1" cy="118.5" rx="3.1" ry="3.1"/>
					
						<ellipse transform="matrix(0.9239 -0.3827 0.3827 0.9239 -33.8652 27.6147)" class="st24" cx="52.5" cy="98.9" rx="3.1" ry="3.1"/>
					
						<ellipse transform="matrix(0.3827 -0.9239 0.9239 0.3827 -33.3955 92.4482)" class="st24" cx="52.5" cy="71.2" rx="3.1" ry="3.1"/>
				</g>
				<ellipse class="st25" cx="85.9" cy="107" rx="30.8" ry="18.5"/>
			</g>
		</g>
	</g>
</g>
<linearGradient id="SVGID_13_" gradientUnits="userSpaceOnUse" x1="86.5275" y1="595.6422" x2="86.5275" y2="562.9226">
	<stop  offset="0" style="stop-color:#FAFAFA"/>
	<stop  offset="0.1518" style="stop-color:#FAFAFA;stop-opacity:0.9027"/>
	<stop  offset="1" style="stop-color:#FAFAFA;stop-opacity:0"/>
</linearGradient>
<rect x="27.4" y="562.9" class="st26" width="118.3" height="32.7"/>
</svg>
