<?xml version="1.0" encoding="iso-8859-1"?>
<!-- Generator: Adobe Illustrator 18.0.0, SVG Export Plug-In . SVG Version: 6.00 Build 0)  -->
<!DOCTYPE svg PUBLIC "-//W3C//DTD SVG 1.1//EN" "http://www.w3.org/Graphics/SVG/1.1/DTD/svg11.dtd">
<svg xmlns="http://www.w3.org/2000/svg" xmlns:xlink="http://www.w3.org/1999/xlink" version="1.1" id="Capa_1" x="0px" y="0px" viewBox="0 0 404.867 404.867" style="enable-background:new 0 0 404.867 404.867;" xml:space="preserve" width="512px" height="512px">
<g>
	<path d="M227.878,191.893C227.877,191.892,227.877,191.892,227.878,191.893c-5.812-14.029-21.949-20.713-35.98-14.903   c-6.796,2.815-12.088,8.107-14.903,14.903c-2.814,6.795-2.814,14.281,0,21.075c2.815,6.796,8.107,12.089,14.903,14.904   c3.398,1.408,6.968,2.111,10.538,2.111s7.141-0.704,10.538-2.111C227.002,222.062,233.688,205.922,227.878,191.893z    M207.234,214.013c-3.093,1.282-6.501,1.283-9.596,0c-3.094-1.281-5.503-3.691-6.785-6.786c-1.281-3.093-1.281-6.501,0-9.595   c1.281-3.094,3.691-5.504,6.785-6.785c1.564-0.648,3.186-0.955,4.781-0.955c4.923,0,9.603,2.917,11.601,7.74   C216.664,204.02,213.62,211.368,207.234,214.013z" fill="#FFFFFF"/>
	<path d="M151.013,78.285c-33.16,13.736-58.987,39.563-72.723,72.723c-13.735,33.161-13.735,69.686,0.001,102.846   c13.735,33.16,39.562,58.987,72.722,72.723c16.583,6.869,34,10.302,51.424,10.302c17.419,0,34.844-3.435,51.422-10.301   c68.454-28.354,101.077-107.114,72.723-175.568C298.227,82.555,219.469,49.93,151.013,78.285z M318.661,229.463l-62.719-25.979   c0.014-0.704,0.014-1.407,0-2.111l62.764-25.997C322.942,193.537,322.744,212.015,318.661,229.463z M166.864,217.165   c-8.124-19.615,1.224-42.182,20.838-50.307c4.803-1.99,9.782-2.932,14.685-2.932c15.115,0,29.487,8.958,35.623,23.769   c3.936,9.501,3.936,19.967-0.001,29.469c-3.936,9.502-11.336,16.902-20.838,20.838C197.56,246.128,174.99,236.781,166.864,217.165z    M92.149,248.113c-0.576-1.391-1.116-2.79-1.638-4.193l60.96-25.25c0.454,1.42,0.954,2.835,1.535,4.236   c0.578,1.396,1.222,2.751,1.905,4.08l-60.956,25.249C93.332,250.874,92.724,249.503,92.149,248.113z M86.15,175.367l62.807,26.016   c-0.015,0.696-0.012,1.393,0.001,2.092L86.149,229.49C81.957,211.649,81.958,193.208,86.15,175.367z M93.957,152.623l60.979,25.259   c-1.378,2.671-2.53,5.452-3.444,8.315l-60.979-25.259c0.521-1.402,1.061-2.801,1.636-4.19   C92.725,155.357,93.333,153.985,93.957,152.623z M312.724,156.748c0.577,1.392,1.115,2.791,1.635,4.192l-60.955,25.248   c-0.456-1.423-0.959-2.837-1.538-4.233c-0.581-1.402-1.227-2.756-1.91-4.08l60.965-25.253   C311.545,153.981,312.147,155.356,312.724,156.748z M218.669,151.486l25.235-60.922c2.814,1.044,5.589,2.189,8.317,3.441   l-25.236,60.925C224.313,153.553,221.532,152.4,218.669,151.486z M251.867,222.906c0.579-1.397,1.083-2.812,1.539-4.236   l60.904,25.227c-1.044,2.814-2.193,5.587-3.444,8.315l-60.904-25.227C250.645,225.656,251.289,224.301,251.867,222.906z    M303.774,139.347l-62.784,26.006c-0.484-0.502-0.974-0.996-1.476-1.477l25.985-62.733   C280.722,110.593,293.927,123.512,303.774,139.347z M229.469,86.217l-25.985,62.734c-0.695-0.015-1.391-0.012-2.089,0.001   l-26.01-62.793c8.942-2.085,17.959-3.104,26.895-3.104C211.492,83.055,220.611,84.144,229.469,86.217z M160.95,90.506l25.25,60.959   c-1.421,0.454-2.836,0.954-4.239,1.535c-1.401,0.58-2.754,1.226-4.077,1.909l-25.25-60.96c1.36-0.623,2.73-1.23,4.12-1.806   C158.147,91.566,159.547,91.027,160.95,90.506z M139.346,101.067l26.016,62.808c-0.502,0.484-0.997,0.975-1.479,1.477   l-62.808-26.016C110.727,123.756,123.767,110.718,139.346,101.067z M101.074,265.522l62.781-26.005   c0.489,0.509,0.987,1.007,1.496,1.496l-26.005,62.78C123.765,294.142,110.725,281.102,101.074,265.522z M152.632,310.911   l25.249-60.956c1.329,0.684,2.684,1.327,4.08,1.906c1.397,0.579,2.812,1.083,4.236,1.539l-25.249,60.956   c-1.404-0.522-2.803-1.062-4.194-1.638C155.364,312.142,153.993,311.535,152.632,310.911z M175.377,318.718l26.005-62.781   c0.352,0.007,0.703,0.026,1.054,0.026c0.354,0,0.707-0.019,1.06-0.026l26.004,62.78   C211.659,322.909,193.218,322.909,175.377,318.718z M243.929,314.354l-25.249-60.956c1.422-0.456,2.835-0.959,4.231-1.537   c1.397-0.579,2.755-1.223,4.084-1.908l25.249,60.955c-1.36,0.624-2.731,1.233-4.125,1.81   C246.729,313.294,245.331,313.833,243.929,314.354z M265.524,303.775l-25.998-62.765c0.508-0.488,1.006-0.986,1.494-1.494   l62.718,25.979C294.287,280.721,281.362,293.927,265.524,303.775z" fill="#FFFFFF"/>
	<path d="M392.829,260.184l-27.612-11.437c8.707-30.376,8.707-62.26-0.001-92.636l27.614-11.438   c9.934-4.115,14.668-15.544,10.553-25.478c-1.993-4.812-5.74-8.56-10.553-10.553c-4.812-1.994-10.111-1.994-14.925,0   l-27.614,11.438c-15.322-27.636-37.867-50.182-65.503-65.504l11.437-27.613c1.993-4.812,1.994-10.112,0.001-14.924   c-1.993-4.813-5.741-8.561-10.554-10.554c-9.937-4.115-21.364,0.62-25.478,10.553l-11.438,27.613   c-30.376-8.708-62.261-8.708-92.637-0.001l-11.437-27.612c-4.115-9.934-15.546-14.666-25.479-10.552   c-9.934,4.115-14.668,15.544-10.553,25.478l11.442,27.624c-28.22,15.691-50.501,38.66-65.431,65.525l-27.69-11.47   c-4.813-1.993-10.112-1.994-14.925,0c-4.813,1.993-8.56,5.741-10.553,10.553s-1.994,10.112-0.001,14.924   c1.993,4.813,5.741,8.561,10.554,10.554l27.69,11.469c-8.441,29.553-8.929,61.551-0.069,92.601l-27.621,11.441   c-9.934,4.115-14.668,15.544-10.553,25.478C4.603,293.164,11.88,297.7,19.536,297.7c2.481,0,5.005-0.477,7.437-1.484L54.58,284.78   c15.322,27.638,37.869,50.185,65.508,65.507l-11.436,27.607c-4.115,9.934,0.62,21.363,10.554,25.478   c2.432,1.007,4.954,1.484,7.437,1.484c7.655,0,14.934-4.536,18.041-12.038l11.435-27.608c15.188,4.354,30.752,6.542,46.318,6.542   c15.568,0,31.133-2.189,46.322-6.543l11.437,27.609c1.993,4.812,5.741,8.56,10.553,10.553c2.406,0.997,4.935,1.495,7.462,1.495   c2.528,0,5.057-0.498,7.463-1.495c4.813-1.993,8.561-5.741,10.554-10.554c1.992-4.812,1.992-10.112-0.001-14.924l-11.436-27.609   c27.636-15.322,50.183-37.87,65.504-65.506l27.612,11.437c2.433,1.007,4.954,1.484,7.437,1.484c7.655,0,14.935-4.537,18.041-12.038   C407.497,275.729,402.763,264.3,392.829,260.184z M383.645,122.5c2.295-0.95,4.929,0.144,5.88,2.436   c0.949,2.292-0.144,4.93-2.436,5.879l-26.639,11.034c-0.537-1.398-1.09-2.792-1.665-4.18c-0.575-1.389-1.17-2.766-1.779-4.135   L383.645,122.5z M274.052,17.778c0.46-1.111,1.325-1.975,2.436-2.435s2.332-0.46,3.444,0c1.11,0.46,1.976,1.325,2.436,2.435   c0.46,1.111,0.46,2.334,0,3.444l-11.034,26.639c-1.369-0.609-2.747-1.204-4.136-1.78c-1.388-0.575-2.782-1.128-4.18-1.665   L274.052,17.778z M122.509,21.222c-0.46-1.11-0.459-2.333,0.001-3.444s1.325-1.976,2.436-2.436c2.294-0.95,4.93,0.144,5.88,2.436   l11.033,26.637c-1.399,0.537-2.794,1.091-4.184,1.667c-1.389,0.575-2.766,1.169-4.132,1.777L122.509,21.222z M17.788,130.815   c-1.11-0.46-1.976-1.325-2.436-2.435c-0.46-1.111-0.46-2.334,0-3.444c0.95-2.292,3.585-3.386,5.88-2.436l26.71,11.064   c-1.221,2.741-2.37,5.513-3.444,8.315L17.788,130.815z M21.233,282.357c-2.295,0.95-4.93-0.144-5.88-2.435   c-0.46-1.11-0.46-2.334,0-3.444s1.325-1.975,2.436-2.435l26.633-11.031c0.536,1.397,1.09,2.791,1.666,4.181   c0.575,1.388,1.17,2.765,1.778,4.133L21.233,282.357z M130.825,387.078c-0.95,2.292-3.584,3.387-5.881,2.436   c-2.292-0.949-3.385-3.587-2.436-5.879l11.032-26.633c1.368,0.609,2.744,1.203,4.133,1.778c1.389,0.576,2.784,1.129,4.183,1.666   L130.825,387.078z M282.367,383.635c0.949,2.292-0.144,4.93-2.436,5.879c-2.291,0.948-4.929-0.142-5.88-2.435l-11.033-26.635   c1.397-0.537,2.791-1.09,4.178-1.665c1.39-0.576,2.768-1.171,4.137-1.78L282.367,383.635z M261.457,344.921   c-38.06,15.766-79.981,15.766-118.043,0c-38.061-15.765-67.704-45.408-83.47-83.469c-32.544-78.57,4.9-168.968,83.47-201.512   c19.03-7.883,39.026-11.824,59.021-11.824c19.996,0,39.991,3.941,59.021,11.824c38.061,15.765,67.704,45.408,83.47,83.469   c15.765,38.061,15.765,79.983-0.001,118.043C329.161,299.513,299.518,329.156,261.457,344.921z M389.525,279.922   c-0.95,2.292-3.582,3.386-5.88,2.435l-26.638-11.034c0.608-1.367,1.203-2.743,1.777-4.131c0.576-1.39,1.129-2.785,1.667-4.184   l26.638,11.034C389.381,274.992,390.474,277.63,389.525,279.922z" fill="#FFFFFF"/>
</g>
<g>
</g>
<g>
</g>
<g>
</g>
<g>
</g>
<g>
</g>
<g>
</g>
<g>
</g>
<g>
</g>
<g>
</g>
<g>
</g>
<g>
</g>
<g>
</g>
<g>
</g>
<g>
</g>
<g>
</g>
</svg>
