<?xml version="1.0" encoding="utf-8"?>
<!-- Generator: Adobe Illustrator 20.1.0, SVG Export Plug-In . SVG Version: 6.00 Build 0)  -->
<svg version="1.1" id="Capa_1" xmlns="http://www.w3.org/2000/svg" xmlns:xlink="http://www.w3.org/1999/xlink" x="0px" y="0px"
	 viewBox="0 0 512 512" style="enable-background:new 0 0 512 512;" xml:space="preserve">
<style type="text/css">
	.st0{fill:#FFFFFF;}
</style>
<g>
	<path class="st0" d="M213.5,332c-3,1.3-4.3,4.8-3,7.7c1.4,3.2,2.1,6.6,2.1,10.2c0,14-11.4,25.4-25.4,25.4s-25.4-11.4-25.4-25.4
		s11.4-25.4,25.4-25.4c3.5,0,7,0.7,10.2,2.1c3,1.3,6.4-0.1,7.7-3s-0.1-6.4-3-7.7c-4.7-2.1-9.7-3.1-14.9-3.1
		c-20.5,0-37.2,16.7-37.2,37.2s16.7,37.2,37.2,37.2s37.2-16.7,37.2-37.2c0-5.2-1-10.2-3.1-14.9C219.9,332.1,216.4,330.7,213.5,332z"
		/>
	<path class="st0" d="M187.1,337.8c-6.7,0-12.1,5.4-12.1,12.1c0,6.7,5.4,12.1,12.1,12.1s12.1-5.4,12.1-12.1
		C199.2,343.2,193.8,337.8,187.1,337.8z M187.1,350.3c-0.2,0-0.4-0.2-0.4-0.4c0-0.2,0.2-0.4,0.4-0.4s0.4,0.2,0.4,0.4
		C187.5,350.1,187.3,350.3,187.1,350.3z"/>
	<path class="st0" d="M351.2,332c-3,1.3-4.3,4.8-3,7.7c1.4,3.2,2.1,6.6,2.1,10.2c0,14-11.4,25.4-25.4,25.4
		c-14,0-25.4-11.4-25.4-25.4s11.4-25.4,25.4-25.4c3.5,0,7,0.7,10.2,2.1c3,1.3,6.4-0.1,7.7-3c1.3-3-0.1-6.4-3-7.7
		c-4.7-2.1-9.7-3.1-14.9-3.1c-20.5,0-37.2,16.7-37.2,37.2s16.7,37.2,37.2,37.2c20.5,0,37.2-16.7,37.2-37.2c0-5.2-1-10.2-3.1-14.9
		C357.7,332.1,354.2,330.7,351.2,332z"/>
	<path class="st0" d="M324.9,337.8c-6.7,0-12.1,5.4-12.1,12.1c0,6.7,5.4,12.1,12.1,12.1c6.7,0,12.1-5.4,12.1-12.1
		C337,343.2,331.6,337.8,324.9,337.8z M324.9,350.3c-0.2,0-0.4-0.2-0.4-0.4c0-0.2,0.2-0.4,0.4-0.4c0.2,0,0.4,0.2,0.4,0.4
		C325.3,350.1,325.1,350.3,324.9,350.3z"/>
	<path class="st0" d="M437.6,99.8H74.4c-10.1,0-18.4,8.3-18.4,18.4v181.6c0,10.1,8.3,18.4,18.4,18.4h31.7c-0.1,1.6,0.5,3.3,1.7,4.5
		c2.3,2.3,6,2.3,8.3,0l4.5-4.5h12.9c-5.5,9.3-8.7,20.1-8.7,31.7c0,34.3,27.9,62.2,62.2,62.2c32.3,0,59-24.8,61.9-56.4h13.9
		c3,31.6,29.6,56.4,61.9,56.4c34.3,0,62.2-27.9,62.2-62.2c0-11.6-3.2-22.4-8.7-31.7h12.9l4.5,4.5c1.1,1.1,2.6,1.7,4.2,1.7
		c1.5,0,3-0.6,4.2-1.7c1.2-1.2,1.8-2.9,1.7-4.5h31.7c10.1,0,18.4-8.3,18.4-18.4V118.2C456,108.1,447.7,99.8,437.6,99.8z
		 M187.1,400.4c-27.8,0-50.5-22.6-50.5-50.5c0-27.8,22.6-50.5,50.5-50.5s50.5,22.6,50.5,50.5C237.6,377.8,215,400.4,187.1,400.4z
		 M262.9,344.1h-13.9c-0.9-9.4-3.8-18.1-8.4-25.8h30.7C266.8,325.9,263.8,334.7,262.9,344.1z M324.9,400.4
		c-27.8,0-50.5-22.6-50.5-50.5c0-27.8,22.6-50.5,50.5-50.5c27.8,0,50.5,22.6,50.5,50.5C375.4,377.8,352.7,400.4,324.9,400.4z
		 M369.4,306.5c-11.3-11.6-27.1-18.8-44.5-18.8s-33.2,7.2-44.5,18.8h-48.8c-11.3-11.6-27.1-18.8-44.5-18.8s-33.2,7.2-44.5,18.8
		h-10.2l32.1-32.1h183l32.1,32.1H369.4z M437.6,306.5h-41.4l-42.1-42.1c-1.1-1.1-2.6-1.7-4.2-1.7H162.1c-1.6,0-3.1,0.6-4.2,1.7
		l-42.1,42.1H74.4c-3.7,0-6.7-3-6.7-6.7v-6.7H112c3.2,0,5.9-2.6,5.9-5.9s-2.6-5.9-5.9-5.9H67.7V118.2c0-3.7,3-6.7,6.7-6.7h363.2
		c3.7,0,6.7,3,6.7,6.7v163.2H400c-3.2,0-5.9,2.6-5.9,5.9s2.6,5.9,5.9,5.9h44.2v6.7C444.3,303.5,441.3,306.5,437.6,306.5z"/>
	<path class="st0" d="M180.9,131.1H93.2c-3.2,0-5.9,2.6-5.9,5.9v100.2c0,3.2,2.6,5.9,5.9,5.9h87.7c3.2,0,5.9-2.6,5.9-5.9V137
		C186.7,133.8,184.1,131.1,180.9,131.1z M175,142.9v50.9h-38.4v-31.7c0-3.2-2.6-5.9-5.9-5.9c-3.2,0-5.9,2.6-5.9,5.9v31.7H99.1v-50.9
		H175z M99.1,231.3v-25.8H175v25.8H99.1z"/>
	<path class="st0" d="M118.2,212.6c-1.5,0-3.1,0.6-4.1,1.7c-1.1,1.1-1.7,2.6-1.7,4.1c0,1.5,0.6,3.1,1.7,4.1c1.1,1.1,2.6,1.7,4.1,1.7
		c1.5,0,3.1-0.6,4.1-1.7c1.1-1.1,1.7-2.6,1.7-4.1c0-1.5-0.6-3.1-1.7-4.1C121.3,213.2,119.8,212.6,118.2,212.6z"/>
	<path class="st0" d="M143.3,212.6c-1.5,0-3.1,0.6-4.1,1.7c-1.1,1.1-1.7,2.6-1.7,4.1c0,1.5,0.6,3.1,1.7,4.1c1.1,1.1,2.6,1.7,4.1,1.7
		c1.5,0,3.1-0.6,4.1-1.7c1.1-1.1,1.7-2.6,1.7-4.1c0-1.5-0.6-3.1-1.7-4.1C146.3,213.2,144.8,212.6,143.3,212.6z"/>
	<path class="st0" d="M162.1,212.6c-1.5,0-3.1,0.6-4.1,1.7c-1.1,1.1-1.7,2.6-1.7,4.1c0,1.5,0.6,3.1,1.7,4.1c1.1,1.1,2.6,1.7,4.1,1.7
		c1.5,0,3.1-0.6,4.1-1.7c1.1-1.1,1.7-2.6,1.7-4.1c0-1.5-0.6-3.1-1.7-4.1C165.1,213.2,163.6,212.6,162.1,212.6z"/>
	<path class="st0" d="M356.2,142.9h62.6c3.2,0,5.9-2.6,5.9-5.9s-2.6-5.9-5.9-5.9h-62.6c-3.2,0-5.9,2.6-5.9,5.9
		S353,142.9,356.2,142.9z"/>
	<path class="st0" d="M356.2,167.9h62.6c3.2,0,5.9-2.6,5.9-5.9c0-3.2-2.6-5.9-5.9-5.9h-62.6c-3.2,0-5.9,2.6-5.9,5.9
		C350.3,165.3,353,167.9,356.2,167.9z"/>
	<path class="st0" d="M356.2,193h62.6c3.2,0,5.9-2.6,5.9-5.9c0-3.2-2.6-5.9-5.9-5.9h-62.6c-3.2,0-5.9,2.6-5.9,5.9
		C350.3,190.4,353,193,356.2,193z"/>
	<path class="st0" d="M356.2,218h62.6c3.2,0,5.9-2.6,5.9-5.9s-2.6-5.9-5.9-5.9h-62.6c-3.2,0-5.9,2.6-5.9,5.9S353,218,356.2,218z"/>
	<path class="st0" d="M424.7,237.2c0-3.2-2.6-5.9-5.9-5.9h-62.6c-3.2,0-5.9,2.6-5.9,5.9c0,3.2,2.6,5.9,5.9,5.9h62.6
		C422.1,243.1,424.7,240.5,424.7,237.2z"/>
	<path class="st0" d="M331.1,167.9c3.2,0,5.9-2.6,5.9-5.9c0-3.2-2.6-5.9-5.9-5.9h-0.4V137c0-3.2-2.6-5.9-5.9-5.9H212.2
		c-3.2,0-5.9,2.6-5.9,5.9v100.2c0,3.2,2.6,5.9,5.9,5.9h112.7c3.2,0,5.9-2.6,5.9-5.9V218h0.4c3.2,0,5.9-2.6,5.9-5.9s-2.6-5.9-5.9-5.9
		h-0.4v-38.4H331.1z M319,206.3h-0.4c-3.2,0-5.9,2.6-5.9,5.9s2.6,5.9,5.9,5.9h0.4v13.3H218v-88.5h101v13.3h-0.4
		c-3.2,0-5.9,2.6-5.9,5.9c0,3.2,2.6,5.9,5.9,5.9h0.4V206.3z"/>
	<path class="st0" d="M237.2,181.2H231c-3.2,0-5.9,2.6-5.9,5.9c0,3.2,2.6,5.9,5.9,5.9h6.3c3.2,0,5.9-2.6,5.9-5.9
		C243.1,183.9,240.5,181.2,237.2,181.2z"/>
</g>
</svg>
