<?xml version="1.0" encoding="iso-8859-1"?>
<!-- Generator: Adobe Illustrator 19.0.0, SVG Export Plug-In . SVG Version: 6.00 Build 0)  -->
<svg xmlns="http://www.w3.org/2000/svg" xmlns:xlink="http://www.w3.org/1999/xlink" version="1.1" id="Layer_1" x="0px" y="0px" viewBox="0 0 512 512" style="enable-background:new 0 0 512 512;" xml:space="preserve" width="512px" height="512px">
<g>
	<g>
		<path d="M269.061,128.157V248.32h151.51V128.157H269.061z M404.898,232.647H284.735V143.83h120.163V232.647z" fill="#FFFFFF"/>
	</g>
</g>
<g>
	<g>
		<rect x="303.02" y="164.728" width="83.592" height="15.673" fill="#FFFFFF"/>
	</g>
</g>
<g>
	<g>
		<rect x="303.02" y="196.075" width="20.898" height="15.674" fill="#FFFFFF"/>
	</g>
</g>
<g>
	<g>
		<rect x="334.367" y="196.075" width="20.898" height="15.674" fill="#FFFFFF"/>
	</g>
</g>
<g>
	<g>
		<path d="M114.939,109.871l-0.651-7.81c-0.712,0.06-17.636,1.567-34.645,11.489c-16.075,9.377-35.235,28.133-35.235,64.239h15.673    c0-54.557,53.262-59.909,55.529-60.11L114.939,109.871z" fill="#FFFFFF"/>
	</g>
</g>
<g>
	<g>
		<path d="M483.265,467.435V295.34h-36.703c9.682-5.461,18.69-12.282,26.781-20.372c23.245-23.244,36.046-54.046,36.046-86.73    c0-67.699-55.077-122.776-122.776-122.776h-7.837V28.891H248.164v36.571H125.388c-32.683,0-63.485,12.801-86.73,36.045    c-23.245,23.245-36.046,54.047-36.046,86.731c0,45.935,25.362,86.052,62.813,107.102H28.735v172.095H0v15.673h512v-15.673H483.265    z M263.837,44.565h99.265v20.898h-99.265V44.565z M232.49,81.136h154.122c59.057,0,107.102,48.045,107.102,107.102    c0,28.497-11.171,55.363-31.455,75.646c-20.285,20.285-47.151,31.456-75.647,31.456H232.49V81.136z M159.347,81.136h57.469v26.122    h-57.469V81.136z M159.347,122.932h57.469v20.898h-57.469V122.932z M159.347,159.504h57.469v20.898h-57.469V159.504z     M159.347,196.075h57.469v20.898h-57.469V196.075z M159.347,232.647h57.469v20.898h-57.469V232.647z M159.347,269.218h57.469    v26.122h-57.469V269.218z M18.286,188.238c0-28.497,11.171-55.363,31.455-75.646c20.285-20.286,47.151-31.456,75.647-31.456    h18.286V295.34h-18.286C66.331,295.34,18.286,247.294,18.286,188.238z M70.531,467.435H44.408V358.034h26.122V467.435z     M222.041,467.435H86.204V358.034h135.837V467.435z M425.796,467.435H279.51V358.034h146.286V467.435z M467.592,467.435h-26.122    V358.034h26.122V467.435z M467.592,342.361H263.837v125.074h-26.122V342.361H44.408v-31.347h423.184V342.361z" fill="#FFFFFF"/>
	</g>
</g>
<g>
</g>
<g>
</g>
<g>
</g>
<g>
</g>
<g>
</g>
<g>
</g>
<g>
</g>
<g>
</g>
<g>
</g>
<g>
</g>
<g>
</g>
<g>
</g>
<g>
</g>
<g>
</g>
<g>
</g>
</svg>
