<?xml version="1.0" encoding="utf-8"?>
<!-- Generator: Adobe Illustrator 20.1.0, SVG Export Plug-In . SVG Version: 6.00 Build 0)  -->
<svg version="1.1" id="Layer_1" xmlns="http://www.w3.org/2000/svg" xmlns:xlink="http://www.w3.org/1999/xlink" x="0px" y="0px"
	 viewBox="0 0 512 512" style="enable-background:new 0 0 512 512;" xml:space="preserve">
<style type="text/css">
	.st0{fill:#FFFFFF;}
</style>
<g>
	<g>
		<g>
			<rect x="419.7" y="419.7" class="st0" width="11.3" height="11.3"/>
			<path class="st0" d="M380.2,171.3h23.5l21.7-7.2V81H278.6v83.1l21.7,7.2h23.5v11.3H203.2c11.5-9.3,18.9-23.6,18.9-39.5v-5.6
				v-11.3c0-20.4-15.5-37.2-35.3-39.3c-1.9-3.5-5.6-5.9-9.8-5.9h-11.3c-4.3,0-7.9,2.4-9.8,5.9c-19.8,2.1-35.3,18.9-35.3,39.3v11.3
				v5.6c0,16,7.4,30.2,18.9,39.5h-7.7c-28,0-50.8,22.8-50.8,50.8v56.5c0,18.7,15.2,33.9,33.9,33.9v96H81V431h33.9h112.9h96h56.5
				h28.2v-11.3h-28.2V171.3z M188.3,98.5c12.9,2.6,22.6,14,22.6,27.7h-22.6V98.5z M165.7,92.3H177v33.9h-11.3V92.3z M165.7,137.5
				H177h11.3h11.5c-6.4,3-15.6,5.6-28.5,5.6c-13,0-22.3-2.6-28.6-5.6h11.7H165.7z M154.4,98.5v27.7h-22.6
				C131.8,112.5,141.5,101.1,154.4,98.5z M131.9,144.3c7.8,5,20.4,10.1,39.5,10.1s31.7-5.1,39.5-10.1c-0.6,21.2-18.1,38.4-39.5,38.4
				S132.5,165.5,131.9,144.3z M179.7,193.9l-8.4,19.5l-8.4-19.5H179.7z M137.5,216.5v-22.6h13.2l15,35V256h-39.5v-23.6
				C132.7,230,137.5,223.8,137.5,216.5z M126.2,301.2v-11.3h39.5v11.3H126.2z M137.5,312.5v5.6c0,6.2-5.1,11.3-11.3,11.3v-16.9
				H137.5z M126.2,278.6v-11.3h39.5v11.3H126.2z M114.9,312.5c-8.3,0-15.5-4.6-19.4-11.3h19.4V312.5z M120.5,222.1h-5.6v67.7H92.3
				v-56.5c0-19.9,14.8-36.3,33.9-39.1v22.1C126.2,219.6,123.6,222.1,120.5,222.1z M165.7,419.7h-39.5v-11.3h39.5V419.7z
				 M216.5,419.7H177v-11.3h39.5V419.7z M216.5,397.1H177V335h-11.3v62.1h-39.5v-56.5c12.5,0,22.6-10.1,22.6-22.6v-5.6h45.2v5.6
				c0,12.5,10.1,22.6,22.6,22.6V397.1z M216.5,329.4c-6.2,0-11.3-5.1-11.3-11.3v-5.6h11.3V329.4z M216.5,301.2H177v-11.3h39.5V301.2
				z M216.5,278.6H177v-11.3h39.5V278.6z M216.5,256H177v-27.1l15-35h13.2v22.6c0,7.4,4.7,13.6,11.3,15.9V256z M222.1,222.1
				c-3.1,0-5.6-2.5-5.6-5.6v-22.6h79v28.2H222.1z M323.7,419.7h-96V233.4h96V419.7z M323.7,222.1h-16.9v-28.2h16.9V222.1z
				 M368.9,184.8l-19.5,9.7l5.1,10.1l14.4-7.2v55.1l-19.5,9.7l5.1,10.1l14.4-7.2v55.1l-19.5,9.7l5.1,10.1l14.4-7.2V388l-19.5,9.7
				l5.1,10.1l14.4-7.2v19.1H335V378l19.5-9.7l-5.1-10.1l-14.4,7.2v-55.1l19.5-9.7l-5.1-10.1l-14.4,7.2v-55.1l19.5-9.7l-5.1-10.1
				l-14.4,7.2v-58.6h33.9V184.8z M368.9,137.5V160h-11.3v-22.6h-11.3V160H335v-22.6h-11.3V160h-11.3v-22.6h-11.3v22.3l-11.3-3.8
				v-41.1h101.6v-11.3H289.9V92.3h124.2v11.3h-11.3v11.3h11.3V156l-11.3,3.8v-22.3h-11.3V160h-11.3v-22.6H368.9z"/>
			<path class="st0" d="M284.2,391.5v11.3h1c8.8,0,17.1,3.4,23.3,9.6l8-8c-8.3-8.3-19.4-12.9-31.3-12.9H284.2z"/>
			<path class="st0" d="M300.2,374.8l1.9,2.8l9.4-6.3l-1.9-2.8c-6.9-10.4-18.5-16.6-31-16.6v11.3
				C287.3,363.3,295.4,367.6,300.2,374.8z"/>
			<path class="st0" d="M419.7,391.5h-1c-11.8,0-22.9,4.6-31.3,12.9l8,8c6.2-6.2,14.5-9.6,23.3-9.6h1V391.5z"/>
			<path class="st0" d="M394.3,368.6l-1.9,2.8l9.4,6.3l1.9-2.8c4.8-7.2,12.9-11.6,21.6-11.6V352C412.9,352,401.3,358.2,394.3,368.6z
				"/>
		</g>
	</g>
</g>
</svg>
